<?xml version="1.0" encoding="utf-8" standalone="no"?>
<!DOCTYPE svg PUBLIC "-//W3C//DTD SVG 1.1//EN"
  "http://www.w3.org/Graphics/SVG/1.1/DTD/svg11.dtd">
<svg xmlns:xlink="http://www.w3.org/1999/xlink" width="952.875pt" height="469.123187pt" viewBox="0 0 952.875 469.123187" xmlns="http://www.w3.org/2000/svg" version="1.1">
 <metadata>
  <rdf:RDF xmlns:dc="http://purl.org/dc/elements/1.1/" xmlns:cc="http://creativecommons.org/ns#" xmlns:rdf="http://www.w3.org/1999/02/22-rdf-syntax-ns#">
   <cc:Work>
    <dc:type rdf:resource="http://purl.org/dc/dcmitype/StillImage"/>
    <dc:date>2026-03-22T01:56:19.283947</dc:date>
    <dc:format>image/svg+xml</dc:format>
    <dc:creator>
     <cc:Agent>
      <dc:title>Matplotlib v3.10.8, https://matplotlib.org/</dc:title>
     </cc:Agent>
    </dc:creator>
   </cc:Work>
  </rdf:RDF>
 </metadata>
 <defs>
  <style type="text/css">*{stroke-linejoin: round; stroke-linecap: butt}</style>
 </defs>
 <g id="figure_1">
  <g id="patch_1">
   <path d="M 0 469.123187 
L 952.875 469.123187 
L 952.875 0 
L 0 0 
z
" style="fill: #ffffff"/>
  </g>
  <g id="axes_1">
   <g id="patch_2">
    <path d="M 52.875 324.833812 
L 468.130814 324.833812 
L 468.130814 39.713812 
L 52.875 39.713812 
z
" style="fill: #ffffff"/>
   </g>
   <g id="matplotlib.axis_1">
    <g id="xtick_1">
     <g id="line2d_1">
      <path d="M 71.750264 324.833812 
L 71.750264 39.713812 
" clip-path="url(#p170d2b009d)" style="fill: none; stroke-dasharray: 2.96,1.28; stroke-dashoffset: 0; stroke: #cccccc; stroke-opacity: 0.8; stroke-width: 0.8"/>
     </g>
     <g id="text_1">
      <!-- 8 -->
      <g style="fill: #262626" transform="translate(68.250889 344.792094) scale(0.11 -0.11)">
       <defs>
        <path id="DejaVuSerif-38" d="M 2981 1275 
Q 2981 1775 2732 2051 
Q 2484 2328 2034 2328 
Q 1584 2328 1336 2051 
Q 1088 1775 1088 1275 
Q 1088 772 1336 495 
Q 1584 219 2034 219 
Q 2484 219 2732 495 
Q 2981 772 2981 1275 
z
M 2853 3541 
Q 2853 3966 2637 4203 
Q 2422 4441 2034 4441 
Q 1650 4441 1433 4203 
Q 1216 3966 1216 3541 
Q 1216 3113 1433 2875 
Q 1650 2638 2034 2638 
Q 2422 2638 2637 2875 
Q 2853 3113 2853 3541 
z
M 2516 2484 
Q 3047 2413 3344 2092 
Q 3641 1772 3641 1275 
Q 3641 619 3225 264 
Q 2809 -91 2034 -91 
Q 1263 -91 845 264 
Q 428 619 428 1275 
Q 428 1772 725 2092 
Q 1022 2413 1556 2484 
Q 1084 2569 832 2842 
Q 581 3116 581 3541 
Q 581 4103 968 4426 
Q 1356 4750 2034 4750 
Q 2713 4750 3100 4426 
Q 3488 4103 3488 3541 
Q 3488 3116 3236 2842 
Q 2984 2569 2516 2484 
z
" transform="scale(0.015625)"/>
       </defs>
       <use xlink:href="#DejaVuSerif-38"/>
      </g>
     </g>
    </g>
    <g id="xtick_2">
     <g id="line2d_2">
      <path d="M 125.679591 324.833812 
L 125.679591 39.713812 
" clip-path="url(#p170d2b009d)" style="fill: none; stroke-dasharray: 2.96,1.28; stroke-dashoffset: 0; stroke: #cccccc; stroke-opacity: 0.8; stroke-width: 0.8"/>
     </g>
     <g id="text_2">
      <!-- 16 -->
      <g style="fill: #262626" transform="translate(118.680841 344.792094) scale(0.11 -0.11)">
       <defs>
        <path id="DejaVuSerif-31" d="M 909 0 
L 909 331 
L 1722 331 
L 1722 4213 
L 781 3603 
L 781 4013 
L 1919 4750 
L 2350 4750 
L 2350 331 
L 3163 331 
L 3163 0 
L 909 0 
z
" transform="scale(0.015625)"/>
        <path id="DejaVuSerif-36" d="M 2094 219 
Q 2534 219 2771 542 
Q 3009 866 3009 1472 
Q 3009 2078 2771 2401 
Q 2534 2725 2094 2725 
Q 1647 2725 1412 2412 
Q 1178 2100 1178 1509 
Q 1178 888 1415 553 
Q 1653 219 2094 219 
z
M 1075 2569 
Q 1288 2803 1556 2918 
Q 1825 3034 2163 3034 
Q 2859 3034 3264 2615 
Q 3669 2197 3669 1472 
Q 3669 763 3233 336 
Q 2797 -91 2069 -91 
Q 1278 -91 853 498 
Q 428 1088 428 2181 
Q 428 3406 931 4078 
Q 1434 4750 2350 4750 
Q 2597 4750 2869 4703 
Q 3141 4656 3425 4563 
L 3425 3794 
L 3072 3794 
Q 3034 4109 2831 4275 
Q 2628 4441 2284 4441 
Q 1678 4441 1381 3981 
Q 1084 3522 1075 2569 
z
" transform="scale(0.015625)"/>
       </defs>
       <use xlink:href="#DejaVuSerif-31"/>
       <use xlink:href="#DejaVuSerif-36" transform="translate(63.623047 0)"/>
      </g>
     </g>
    </g>
    <g id="xtick_3">
     <g id="line2d_3">
      <path d="M 179.608917 324.833812 
L 179.608917 39.713812 
" clip-path="url(#p170d2b009d)" style="fill: none; stroke-dasharray: 2.96,1.28; stroke-dashoffset: 0; stroke: #cccccc; stroke-opacity: 0.8; stroke-width: 0.8"/>
     </g>
     <g id="text_3">
      <!-- 24 -->
      <g style="fill: #262626" transform="translate(172.610167 344.792094) scale(0.11 -0.11)">
       <defs>
        <path id="DejaVuSerif-32" d="M 819 3553 
L 469 3553 
L 469 4384 
Q 803 4563 1142 4656 
Q 1481 4750 1806 4750 
Q 2534 4750 2956 4397 
Q 3378 4044 3378 3438 
Q 3378 2753 2422 1800 
Q 2347 1728 2309 1691 
L 1131 513 
L 3078 513 
L 3078 1088 
L 3444 1088 
L 3444 0 
L 434 0 
L 434 341 
L 1850 1753 
Q 2319 2222 2519 2614 
Q 2719 3006 2719 3438 
Q 2719 3909 2473 4175 
Q 2228 4441 1797 4441 
Q 1350 4441 1106 4219 
Q 863 3997 819 3553 
z
" transform="scale(0.015625)"/>
        <path id="DejaVuSerif-34" d="M 2234 1581 
L 2234 4063 
L 641 1581 
L 2234 1581 
z
M 3609 0 
L 1484 0 
L 1484 331 
L 2234 331 
L 2234 1247 
L 197 1247 
L 197 1588 
L 2241 4750 
L 2859 4750 
L 2859 1581 
L 3750 1581 
L 3750 1247 
L 2859 1247 
L 2859 331 
L 3609 331 
L 3609 0 
z
" transform="scale(0.015625)"/>
       </defs>
       <use xlink:href="#DejaVuSerif-32"/>
       <use xlink:href="#DejaVuSerif-34" transform="translate(63.623047 0)"/>
      </g>
     </g>
    </g>
    <g id="xtick_4">
     <g id="line2d_4">
      <path d="M 233.538244 324.833812 
L 233.538244 39.713812 
" clip-path="url(#p170d2b009d)" style="fill: none; stroke-dasharray: 2.96,1.28; stroke-dashoffset: 0; stroke: #cccccc; stroke-opacity: 0.8; stroke-width: 0.8"/>
     </g>
     <g id="text_4">
      <!-- 32 -->
      <g style="fill: #262626" transform="translate(226.539494 344.792094) scale(0.11 -0.11)">
       <defs>
        <path id="DejaVuSerif-33" d="M 622 4469 
Q 988 4606 1323 4678 
Q 1659 4750 1953 4750 
Q 2638 4750 3022 4454 
Q 3406 4159 3406 3634 
Q 3406 3213 3140 2930 
Q 2875 2647 2388 2547 
Q 2963 2466 3280 2130 
Q 3597 1794 3597 1259 
Q 3597 606 3158 257 
Q 2719 -91 1894 -91 
Q 1528 -91 1179 -12 
Q 831 66 488 225 
L 488 1131 
L 838 1131 
Q 869 681 1141 450 
Q 1413 219 1906 219 
Q 2384 219 2661 495 
Q 2938 772 2938 1253 
Q 2938 1803 2653 2086 
Q 2369 2369 1819 2369 
L 1522 2369 
L 1522 2688 
L 1678 2688 
Q 2225 2688 2498 2914 
Q 2772 3141 2772 3597 
Q 2772 4006 2547 4223 
Q 2322 4441 1900 4441 
Q 1478 4441 1245 4241 
Q 1013 4041 972 3647 
L 622 3647 
L 622 4469 
z
" transform="scale(0.015625)"/>
       </defs>
       <use xlink:href="#DejaVuSerif-33"/>
       <use xlink:href="#DejaVuSerif-32" transform="translate(63.623047 0)"/>
      </g>
     </g>
    </g>
    <g id="xtick_5">
     <g id="line2d_5">
      <path d="M 287.46757 324.833812 
L 287.46757 39.713812 
" clip-path="url(#p170d2b009d)" style="fill: none; stroke-dasharray: 2.96,1.28; stroke-dashoffset: 0; stroke: #cccccc; stroke-opacity: 0.8; stroke-width: 0.8"/>
     </g>
     <g id="text_5">
      <!-- 40 -->
      <g style="fill: #262626" transform="translate(280.46882 344.792094) scale(0.11 -0.11)">
       <defs>
        <path id="DejaVuSerif-30" d="M 2034 219 
Q 2513 219 2750 744 
Q 2988 1269 2988 2328 
Q 2988 3391 2750 3916 
Q 2513 4441 2034 4441 
Q 1556 4441 1318 3916 
Q 1081 3391 1081 2328 
Q 1081 1269 1318 744 
Q 1556 219 2034 219 
z
M 2034 -91 
Q 1275 -91 848 546 
Q 422 1184 422 2328 
Q 422 3475 848 4112 
Q 1275 4750 2034 4750 
Q 2797 4750 3222 4112 
Q 3647 3475 3647 2328 
Q 3647 1184 3222 546 
Q 2797 -91 2034 -91 
z
" transform="scale(0.015625)"/>
       </defs>
       <use xlink:href="#DejaVuSerif-34"/>
       <use xlink:href="#DejaVuSerif-30" transform="translate(63.623047 0)"/>
      </g>
     </g>
    </g>
    <g id="xtick_6">
     <g id="line2d_6">
      <path d="M 341.396897 324.833812 
L 341.396897 39.713812 
" clip-path="url(#p170d2b009d)" style="fill: none; stroke-dasharray: 2.96,1.28; stroke-dashoffset: 0; stroke: #cccccc; stroke-opacity: 0.8; stroke-width: 0.8"/>
     </g>
     <g id="text_6">
      <!-- 48 -->
      <g style="fill: #262626" transform="translate(334.398147 344.792094) scale(0.11 -0.11)">
       <use xlink:href="#DejaVuSerif-34"/>
       <use xlink:href="#DejaVuSerif-38" transform="translate(63.623047 0)"/>
      </g>
     </g>
    </g>
    <g id="xtick_7">
     <g id="line2d_7">
      <path d="M 395.326223 324.833812 
L 395.326223 39.713812 
" clip-path="url(#p170d2b009d)" style="fill: none; stroke-dasharray: 2.96,1.28; stroke-dashoffset: 0; stroke: #cccccc; stroke-opacity: 0.8; stroke-width: 0.8"/>
     </g>
     <g id="text_7">
      <!-- 56 -->
      <g style="fill: #262626" transform="translate(388.327473 344.792094) scale(0.11 -0.11)">
       <defs>
        <path id="DejaVuSerif-35" d="M 3219 4666 
L 3219 4153 
L 1081 4153 
L 1081 2816 
Q 1244 2928 1461 2984 
Q 1678 3041 1947 3041 
Q 2703 3041 3140 2622 
Q 3578 2203 3578 1478 
Q 3578 738 3136 323 
Q 2694 -91 1894 -91 
Q 1572 -91 1234 -12 
Q 897 66 544 225 
L 544 1131 
L 897 1131 
Q 925 688 1179 453 
Q 1434 219 1894 219 
Q 2388 219 2653 544 
Q 2919 869 2919 1478 
Q 2919 2084 2655 2407 
Q 2391 2731 1894 2731 
Q 1613 2731 1398 2631 
Q 1184 2531 1019 2322 
L 750 2322 
L 750 4666 
L 3219 4666 
z
" transform="scale(0.015625)"/>
       </defs>
       <use xlink:href="#DejaVuSerif-35"/>
       <use xlink:href="#DejaVuSerif-36" transform="translate(63.623047 0)"/>
      </g>
     </g>
    </g>
    <g id="xtick_8">
     <g id="line2d_8">
      <path d="M 449.25555 324.833812 
L 449.25555 39.713812 
" clip-path="url(#p170d2b009d)" style="fill: none; stroke-dasharray: 2.96,1.28; stroke-dashoffset: 0; stroke: #cccccc; stroke-opacity: 0.8; stroke-width: 0.8"/>
     </g>
     <g id="text_8">
      <!-- 64 -->
      <g style="fill: #262626" transform="translate(442.2568 344.792094) scale(0.11 -0.11)">
       <use xlink:href="#DejaVuSerif-36"/>
       <use xlink:href="#DejaVuSerif-34" transform="translate(63.623047 0)"/>
      </g>
     </g>
    </g>
    <g id="text_9">
     <!-- Batch size -->
     <g style="fill: #262626" transform="translate(226.660251 360.957719) scale(0.13 -0.13)">
      <defs>
       <path id="DejaVuSerif-42" d="M 1581 331 
L 2516 331 
Q 3078 331 3337 575 
Q 3597 819 3597 1350 
Q 3597 1878 3339 2120 
Q 3081 2363 2516 2363 
L 1581 2363 
L 1581 331 
z
M 1581 2694 
L 2375 2694 
Q 2888 2694 3123 2891 
Q 3359 3088 3359 3513 
Q 3359 3941 3123 4136 
Q 2888 4331 2375 4331 
L 1581 4331 
L 1581 2694 
z
M 353 0 
L 353 331 
L 947 331 
L 947 4331 
L 353 4331 
L 353 4666 
L 2656 4666 
Q 3363 4666 3720 4377 
Q 4078 4088 4078 3513 
Q 4078 3097 3829 2850 
Q 3581 2603 3103 2547 
Q 3697 2472 4005 2167 
Q 4313 1863 4313 1350 
Q 4313 656 3875 328 
Q 3438 0 2509 0 
L 353 0 
z
" transform="scale(0.015625)"/>
       <path id="DejaVuSerif-61" d="M 2547 1044 
L 2547 1747 
L 1806 1747 
Q 1378 1747 1168 1562 
Q 959 1378 959 997 
Q 959 650 1171 447 
Q 1384 244 1747 244 
Q 2106 244 2326 466 
Q 2547 688 2547 1044 
z
M 3122 2075 
L 3122 331 
L 3634 331 
L 3634 0 
L 2547 0 
L 2547 359 
Q 2356 128 2106 18 
Q 1856 -91 1522 -91 
Q 969 -91 644 203 
Q 319 497 319 997 
Q 319 1513 691 1797 
Q 1063 2081 1741 2081 
L 2547 2081 
L 2547 2309 
Q 2547 2688 2317 2895 
Q 2088 3103 1672 3103 
Q 1328 3103 1125 2947 
Q 922 2791 872 2484 
L 575 2484 
L 575 3156 
Q 875 3284 1158 3348 
Q 1441 3413 1709 3413 
Q 2400 3413 2761 3070 
Q 3122 2728 3122 2075 
z
" transform="scale(0.015625)"/>
       <path id="DejaVuSerif-74" d="M 691 2988 
L 184 2988 
L 184 3322 
L 691 3322 
L 691 4353 
L 1269 4353 
L 1269 3322 
L 2350 3322 
L 2350 2988 
L 1269 2988 
L 1269 878 
Q 1269 456 1350 337 
Q 1431 219 1650 219 
Q 1875 219 1978 351 
Q 2081 484 2088 781 
L 2522 781 
Q 2497 328 2275 118 
Q 2053 -91 1600 -91 
Q 1103 -91 897 129 
Q 691 350 691 878 
L 691 2988 
z
" transform="scale(0.015625)"/>
       <path id="DejaVuSerif-63" d="M 3291 997 
Q 3169 466 2822 187 
Q 2475 -91 1925 -91 
Q 1200 -91 759 389 
Q 319 869 319 1663 
Q 319 2459 759 2936 
Q 1200 3413 1925 3413 
Q 2241 3413 2553 3339 
Q 2866 3266 3181 3116 
L 3181 2266 
L 2847 2266 
Q 2781 2703 2561 2903 
Q 2341 3103 1931 3103 
Q 1466 3103 1228 2742 
Q 991 2381 991 1663 
Q 991 944 1227 581 
Q 1463 219 1931 219 
Q 2303 219 2525 412 
Q 2747 606 2828 997 
L 3291 997 
z
" transform="scale(0.015625)"/>
       <path id="DejaVuSerif-68" d="M 263 0 
L 263 331 
L 781 331 
L 781 4531 
L 231 4531 
L 231 4863 
L 1356 4863 
L 1356 2731 
Q 1516 3069 1770 3241 
Q 2025 3413 2363 3413 
Q 2913 3413 3172 3097 
Q 3431 2781 3431 2113 
L 3431 331 
L 3944 331 
L 3944 0 
L 2356 0 
L 2356 331 
L 2853 331 
L 2853 1931 
Q 2853 2541 2704 2764 
Q 2556 2988 2175 2988 
Q 1775 2988 1565 2697 
Q 1356 2406 1356 1850 
L 1356 331 
L 1856 331 
L 1856 0 
L 263 0 
z
" transform="scale(0.015625)"/>
       <path id="DejaVuSerif-20" transform="scale(0.015625)"/>
       <path id="DejaVuSerif-73" d="M 359 184 
L 359 959 
L 691 959 
Q 703 588 923 403 
Q 1144 219 1575 219 
Q 1963 219 2166 364 
Q 2369 509 2369 788 
Q 2369 1006 2220 1140 
Q 2072 1275 1594 1428 
L 1178 1569 
Q 750 1706 558 1912 
Q 366 2119 366 2438 
Q 366 2894 700 3153 
Q 1034 3413 1625 3413 
Q 1888 3413 2178 3344 
Q 2469 3275 2778 3144 
L 2778 2419 
L 2447 2419 
Q 2434 2741 2221 2922 
Q 2009 3103 1644 3103 
Q 1281 3103 1095 2975 
Q 909 2847 909 2591 
Q 909 2381 1050 2254 
Q 1191 2128 1613 1997 
L 2069 1856 
Q 2541 1709 2748 1489 
Q 2956 1269 2956 922 
Q 2956 450 2595 179 
Q 2234 -91 1600 -91 
Q 1278 -91 972 -22 
Q 666 47 359 184 
z
" transform="scale(0.015625)"/>
       <path id="DejaVuSerif-69" d="M 622 4353 
Q 622 4497 726 4603 
Q 831 4709 978 4709 
Q 1122 4709 1226 4603 
Q 1331 4497 1331 4353 
Q 1331 4206 1228 4103 
Q 1125 4000 978 4000 
Q 831 4000 726 4103 
Q 622 4206 622 4353 
z
M 1356 331 
L 1900 331 
L 1900 0 
L 231 0 
L 231 331 
L 781 331 
L 781 2988 
L 231 2988 
L 231 3322 
L 1356 3322 
L 1356 331 
z
" transform="scale(0.015625)"/>
       <path id="DejaVuSerif-7a" d="M 256 0 
L 256 269 
L 2338 2988 
L 691 2988 
L 691 2413 
L 359 2413 
L 359 3322 
L 3078 3322 
L 3078 3053 
L 997 331 
L 2803 331 
L 2803 934 
L 3138 934 
L 3138 0 
L 256 0 
z
" transform="scale(0.015625)"/>
       <path id="DejaVuSerif-65" d="M 3469 1600 
L 991 1600 
L 991 1575 
Q 991 903 1244 561 
Q 1497 219 1991 219 
Q 2369 219 2611 417 
Q 2853 616 2950 1006 
L 3413 1006 
Q 3275 459 2904 184 
Q 2534 -91 1931 -91 
Q 1203 -91 761 389 
Q 319 869 319 1663 
Q 319 2450 753 2931 
Q 1188 3413 1894 3413 
Q 2647 3413 3050 2948 
Q 3453 2484 3469 1600 
z
M 2791 1931 
Q 2772 2513 2545 2808 
Q 2319 3103 1894 3103 
Q 1497 3103 1269 2806 
Q 1041 2509 991 1931 
L 2791 1931 
z
" transform="scale(0.015625)"/>
      </defs>
      <use xlink:href="#DejaVuSerif-42"/>
      <use xlink:href="#DejaVuSerif-61" transform="translate(73.486328 0)"/>
      <use xlink:href="#DejaVuSerif-74" transform="translate(133.105469 0)"/>
      <use xlink:href="#DejaVuSerif-63" transform="translate(173.291016 0)"/>
      <use xlink:href="#DejaVuSerif-68" transform="translate(229.296875 0)"/>
      <use xlink:href="#DejaVuSerif-20" transform="translate(293.701172 0)"/>
      <use xlink:href="#DejaVuSerif-73" transform="translate(325.488281 0)"/>
      <use xlink:href="#DejaVuSerif-69" transform="translate(376.806641 0)"/>
      <use xlink:href="#DejaVuSerif-7a" transform="translate(408.789062 0)"/>
      <use xlink:href="#DejaVuSerif-65" transform="translate(461.474609 0)"/>
     </g>
    </g>
   </g>
   <g id="matplotlib.axis_2">
    <g id="ytick_1">
     <g id="line2d_9">
      <path d="M 52.875 301.79986 
L 468.130814 301.79986 
" clip-path="url(#p170d2b009d)" style="fill: none; stroke-dasharray: 2.96,1.28; stroke-dashoffset: 0; stroke: #cccccc; stroke-opacity: 0.8; stroke-width: 0.8"/>
     </g>
     <g id="text_10">
      <!-- 1.0 -->
      <g style="fill: #262626" transform="translate(23.781563 305.979001) scale(0.11 -0.11)">
       <defs>
        <path id="DejaVuSerif-2e" d="M 603 325 
Q 603 500 722 622 
Q 841 744 1019 744 
Q 1191 744 1312 622 
Q 1434 500 1434 325 
Q 1434 153 1312 31 
Q 1191 -91 1019 -91 
Q 841 -91 722 29 
Q 603 150 603 325 
z
" transform="scale(0.015625)"/>
       </defs>
       <use xlink:href="#DejaVuSerif-31"/>
       <use xlink:href="#DejaVuSerif-2e" transform="translate(63.623047 0)"/>
       <use xlink:href="#DejaVuSerif-30" transform="translate(95.410156 0)"/>
      </g>
     </g>
    </g>
    <g id="ytick_2">
     <g id="line2d_10">
      <path d="M 52.875 252.160357 
L 468.130814 252.160357 
" clip-path="url(#p170d2b009d)" style="fill: none; stroke-dasharray: 2.96,1.28; stroke-dashoffset: 0; stroke: #cccccc; stroke-opacity: 0.8; stroke-width: 0.8"/>
     </g>
     <g id="text_11">
      <!-- 1.2 -->
      <g style="fill: #262626" transform="translate(23.781563 256.339498) scale(0.11 -0.11)">
       <use xlink:href="#DejaVuSerif-31"/>
       <use xlink:href="#DejaVuSerif-2e" transform="translate(63.623047 0)"/>
       <use xlink:href="#DejaVuSerif-32" transform="translate(95.410156 0)"/>
      </g>
     </g>
    </g>
    <g id="ytick_3">
     <g id="line2d_11">
      <path d="M 52.875 202.520854 
L 468.130814 202.520854 
" clip-path="url(#p170d2b009d)" style="fill: none; stroke-dasharray: 2.96,1.28; stroke-dashoffset: 0; stroke: #cccccc; stroke-opacity: 0.8; stroke-width: 0.8"/>
     </g>
     <g id="text_12">
      <!-- 1.4 -->
      <g style="fill: #262626" transform="translate(23.781563 206.699994) scale(0.11 -0.11)">
       <use xlink:href="#DejaVuSerif-31"/>
       <use xlink:href="#DejaVuSerif-2e" transform="translate(63.623047 0)"/>
       <use xlink:href="#DejaVuSerif-34" transform="translate(95.410156 0)"/>
      </g>
     </g>
    </g>
    <g id="ytick_4">
     <g id="line2d_12">
      <path d="M 52.875 152.881351 
L 468.130814 152.881351 
" clip-path="url(#p170d2b009d)" style="fill: none; stroke-dasharray: 2.96,1.28; stroke-dashoffset: 0; stroke: #cccccc; stroke-opacity: 0.8; stroke-width: 0.8"/>
     </g>
     <g id="text_13">
      <!-- 1.6 -->
      <g style="fill: #262626" transform="translate(23.781563 157.060491) scale(0.11 -0.11)">
       <use xlink:href="#DejaVuSerif-31"/>
       <use xlink:href="#DejaVuSerif-2e" transform="translate(63.623047 0)"/>
       <use xlink:href="#DejaVuSerif-36" transform="translate(95.410156 0)"/>
      </g>
     </g>
    </g>
    <g id="ytick_5">
     <g id="line2d_13">
      <path d="M 52.875 103.241847 
L 468.130814 103.241847 
" clip-path="url(#p170d2b009d)" style="fill: none; stroke-dasharray: 2.96,1.28; stroke-dashoffset: 0; stroke: #cccccc; stroke-opacity: 0.8; stroke-width: 0.8"/>
     </g>
     <g id="text_14">
      <!-- 1.8 -->
      <g style="fill: #262626" transform="translate(23.781563 107.420988) scale(0.11 -0.11)">
       <use xlink:href="#DejaVuSerif-31"/>
       <use xlink:href="#DejaVuSerif-2e" transform="translate(63.623047 0)"/>
       <use xlink:href="#DejaVuSerif-38" transform="translate(95.410156 0)"/>
      </g>
     </g>
    </g>
    <g id="ytick_6">
     <g id="line2d_14">
      <path d="M 52.875 53.602344 
L 468.130814 53.602344 
" clip-path="url(#p170d2b009d)" style="fill: none; stroke-dasharray: 2.96,1.28; stroke-dashoffset: 0; stroke: #cccccc; stroke-opacity: 0.8; stroke-width: 0.8"/>
     </g>
     <g id="text_15">
      <!-- 2.0 -->
      <g style="fill: #262626" transform="translate(23.781563 57.781485) scale(0.11 -0.11)">
       <use xlink:href="#DejaVuSerif-32"/>
       <use xlink:href="#DejaVuSerif-2e" transform="translate(63.623047 0)"/>
       <use xlink:href="#DejaVuSerif-30" transform="translate(95.410156 0)"/>
      </g>
     </g>
    </g>
    <g id="text_16">
     <!-- Ratio -->
     <g style="fill: #262626" transform="translate(17.077969 199.794359) rotate(-90) scale(0.13 -0.13)">
      <defs>
       <path id="DejaVuSerif-52" d="M 3066 2316 
Q 3284 2256 3442 2114 
Q 3600 1972 3725 1716 
L 4403 331 
L 4972 331 
L 4972 0 
L 3872 0 
L 3144 1484 
Q 2934 1916 2759 2042 
Q 2584 2169 2278 2169 
L 1581 2169 
L 1581 331 
L 2241 331 
L 2241 0 
L 353 0 
L 353 331 
L 947 331 
L 947 4331 
L 353 4331 
L 353 4666 
L 2719 4666 
Q 3400 4666 3770 4341 
Q 4141 4016 4141 3419 
Q 4141 2938 3870 2661 
Q 3600 2384 3066 2316 
z
M 1581 2503 
L 2503 2503 
Q 2975 2503 3200 2726 
Q 3425 2950 3425 3419 
Q 3425 3888 3200 4109 
Q 2975 4331 2503 4331 
L 1581 4331 
L 1581 2503 
z
" transform="scale(0.015625)"/>
       <path id="DejaVuSerif-6f" d="M 1925 219 
Q 2388 219 2623 584 
Q 2859 950 2859 1663 
Q 2859 2375 2623 2739 
Q 2388 3103 1925 3103 
Q 1463 3103 1227 2739 
Q 991 2375 991 1663 
Q 991 950 1228 584 
Q 1466 219 1925 219 
z
M 1925 -91 
Q 1200 -91 759 389 
Q 319 869 319 1663 
Q 319 2456 758 2934 
Q 1197 3413 1925 3413 
Q 2653 3413 3092 2934 
Q 3531 2456 3531 1663 
Q 3531 869 3092 389 
Q 2653 -91 1925 -91 
z
" transform="scale(0.015625)"/>
      </defs>
      <use xlink:href="#DejaVuSerif-52"/>
      <use xlink:href="#DejaVuSerif-61" transform="translate(77.542969 0)"/>
      <use xlink:href="#DejaVuSerif-74" transform="translate(137.162109 0)"/>
      <use xlink:href="#DejaVuSerif-69" transform="translate(177.347656 0)"/>
      <use xlink:href="#DejaVuSerif-6f" transform="translate(209.330078 0)"/>
     </g>
    </g>
   </g>
   <g id="line2d_15">
    <path d="M 71.750264 309.586468 
L 125.679591 310.521049 
L 179.608917 308.985927 
L 233.538244 308.543819 
L 287.46757 311.873812 
L 341.396897 309.342977 
L 395.326223 309.941128 
L 449.25555 309.730417 
" clip-path="url(#p170d2b009d)" style="fill: none; stroke: #0173b2; stroke-width: 1.8; stroke-linecap: round"/>
    <defs>
     <path id="m2f321c57d0" d="M 0 3 
C 0.795609 3 1.55874 2.683901 2.12132 2.12132 
C 2.683901 1.55874 3 0.795609 3 0 
C 3 -0.795609 2.683901 -1.55874 2.12132 -2.12132 
C 1.55874 -2.683901 0.795609 -3 0 -3 
C -0.795609 -3 -1.55874 -2.683901 -2.12132 -2.12132 
C -2.683901 -1.55874 -3 -0.795609 -3 0 
C -3 0.795609 -2.683901 1.55874 -2.12132 2.12132 
C -1.55874 2.683901 -0.795609 3 0 3 
z
"/>
    </defs>
    <g clip-path="url(#p170d2b009d)">
     <use xlink:href="#m2f321c57d0" x="71.750264" y="309.586468" style="fill: #0173b2"/>
     <use xlink:href="#m2f321c57d0" x="125.679591" y="310.521049" style="fill: #0173b2"/>
     <use xlink:href="#m2f321c57d0" x="179.608917" y="308.985927" style="fill: #0173b2"/>
     <use xlink:href="#m2f321c57d0" x="233.538244" y="308.543819" style="fill: #0173b2"/>
     <use xlink:href="#m2f321c57d0" x="287.46757" y="311.873812" style="fill: #0173b2"/>
     <use xlink:href="#m2f321c57d0" x="341.396897" y="309.342977" style="fill: #0173b2"/>
     <use xlink:href="#m2f321c57d0" x="395.326223" y="309.941128" style="fill: #0173b2"/>
     <use xlink:href="#m2f321c57d0" x="449.25555" y="309.730417" style="fill: #0173b2"/>
    </g>
   </g>
   <g id="line2d_16">
    <path d="M 71.750264 241.215811 
L 125.679591 216.406694 
L 179.608917 202.245797 
L 233.538244 203.001484 
L 287.46757 208.762363 
L 341.396897 210.479625 
L 395.326223 213.227739 
L 449.25555 215.516777 
" clip-path="url(#p170d2b009d)" style="fill: none; stroke: #de8f05; stroke-width: 1.8; stroke-linecap: round"/>
    <defs>
     <path id="ma529e454c1" d="M -3 3 
L 3 3 
L 3 -3 
L -3 -3 
z
"/>
    </defs>
    <g clip-path="url(#p170d2b009d)">
     <use xlink:href="#ma529e454c1" x="71.750264" y="241.215811" style="fill: #de8f05"/>
     <use xlink:href="#ma529e454c1" x="125.679591" y="216.406694" style="fill: #de8f05"/>
     <use xlink:href="#ma529e454c1" x="179.608917" y="202.245797" style="fill: #de8f05"/>
     <use xlink:href="#ma529e454c1" x="233.538244" y="203.001484" style="fill: #de8f05"/>
     <use xlink:href="#ma529e454c1" x="287.46757" y="208.762363" style="fill: #de8f05"/>
     <use xlink:href="#ma529e454c1" x="341.396897" y="210.479625" style="fill: #de8f05"/>
     <use xlink:href="#ma529e454c1" x="395.326223" y="213.227739" style="fill: #de8f05"/>
     <use xlink:href="#ma529e454c1" x="449.25555" y="215.516777" style="fill: #de8f05"/>
    </g>
   </g>
   <g id="line2d_17">
    <path d="M 71.750264 200.939009 
L 125.679591 164.384776 
L 179.608917 129.698757 
L 233.538244 122.032312 
L 287.46757 119.697501 
L 341.396897 109.26414 
L 395.326223 114.232654 
L 449.25555 116.558494 
" clip-path="url(#p170d2b009d)" style="fill: none; stroke: #029e73; stroke-width: 1.8; stroke-linecap: round"/>
    <defs>
     <path id="m16d360e48a" d="M 0 -3 
L -3 3 
L 3 3 
z
"/>
    </defs>
    <g clip-path="url(#p170d2b009d)">
     <use xlink:href="#m16d360e48a" x="71.750264" y="200.939009" style="fill: #029e73"/>
     <use xlink:href="#m16d360e48a" x="125.679591" y="164.384776" style="fill: #029e73"/>
     <use xlink:href="#m16d360e48a" x="179.608917" y="129.698757" style="fill: #029e73"/>
     <use xlink:href="#m16d360e48a" x="233.538244" y="122.032312" style="fill: #029e73"/>
     <use xlink:href="#m16d360e48a" x="287.46757" y="119.697501" style="fill: #029e73"/>
     <use xlink:href="#m16d360e48a" x="341.396897" y="109.26414" style="fill: #029e73"/>
     <use xlink:href="#m16d360e48a" x="395.326223" y="114.232654" style="fill: #029e73"/>
     <use xlink:href="#m16d360e48a" x="449.25555" y="116.558494" style="fill: #029e73"/>
    </g>
   </g>
   <g id="line2d_18">
    <path d="M 71.750264 189.83851 
L 125.679591 144.924248 
L 179.608917 116.008041 
L 233.538244 94.281542 
L 287.46757 83.185518 
L 341.396897 59.083799 
L 395.326223 54.755549 
L 449.25555 52.673812 
" clip-path="url(#p170d2b009d)" style="fill: none; stroke: #d55e00; stroke-width: 1.8; stroke-linecap: round"/>
    <defs>
     <path id="m6c4082f05e" d="M -0 4.242641 
L 4.242641 0 
L 0 -4.242641 
L -4.242641 -0 
z
"/>
    </defs>
    <g clip-path="url(#p170d2b009d)">
     <use xlink:href="#m6c4082f05e" x="71.750264" y="189.83851" style="fill: #d55e00"/>
     <use xlink:href="#m6c4082f05e" x="125.679591" y="144.924248" style="fill: #d55e00"/>
     <use xlink:href="#m6c4082f05e" x="179.608917" y="116.008041" style="fill: #d55e00"/>
     <use xlink:href="#m6c4082f05e" x="233.538244" y="94.281542" style="fill: #d55e00"/>
     <use xlink:href="#m6c4082f05e" x="287.46757" y="83.185518" style="fill: #d55e00"/>
     <use xlink:href="#m6c4082f05e" x="341.396897" y="59.083799" style="fill: #d55e00"/>
     <use xlink:href="#m6c4082f05e" x="395.326223" y="54.755549" style="fill: #d55e00"/>
     <use xlink:href="#m6c4082f05e" x="449.25555" y="52.673812" style="fill: #d55e00"/>
    </g>
   </g>
   <g id="line2d_19">
    <path d="M 52.875 301.79986 
L 468.130814 301.79986 
" clip-path="url(#p170d2b009d)" style="fill: none; stroke-dasharray: 5.55,2.4; stroke-dashoffset: 0; stroke: #ff0000; stroke-width: 1.5"/>
   </g>
   <g id="patch_3">
    <path d="M 52.875 324.833812 
L 52.875 39.713812 
" style="fill: none; stroke: #cccccc; stroke-width: 1.25; stroke-linejoin: miter; stroke-linecap: square"/>
   </g>
   <g id="patch_4">
    <path d="M 468.130814 324.833812 
L 468.130814 39.713812 
" style="fill: none; stroke: #cccccc; stroke-width: 1.25; stroke-linejoin: miter; stroke-linecap: square"/>
   </g>
   <g id="patch_5">
    <path d="M 52.875 324.833812 
L 468.130814 324.833812 
" style="fill: none; stroke: #cccccc; stroke-width: 1.25; stroke-linejoin: miter; stroke-linecap: square"/>
   </g>
   <g id="patch_6">
    <path d="M 52.875 39.713812 
L 468.130814 39.713812 
" style="fill: none; stroke: #cccccc; stroke-width: 1.25; stroke-linejoin: miter; stroke-linecap: square"/>
   </g>
   <g id="text_17">
    <!-- 0.97 -->
    <g style="fill: #0173b2" transform="translate(62.287374 300.818734) scale(0.085 -0.085)">
     <defs>
      <path id="DejaVuSerif-39" d="M 2994 2091 
Q 2784 1856 2512 1740 
Q 2241 1625 1900 1625 
Q 1206 1625 804 2044 
Q 403 2463 403 3188 
Q 403 3897 839 4323 
Q 1275 4750 2003 4750 
Q 2794 4750 3217 4161 
Q 3641 3572 3641 2478 
Q 3641 1253 3137 581 
Q 2634 -91 1722 -91 
Q 1475 -91 1203 -44 
Q 931 3 647 97 
L 647 872 
L 997 872 
Q 1038 556 1241 387 
Q 1444 219 1784 219 
Q 2391 219 2687 676 
Q 2984 1134 2994 2091 
z
M 1978 4441 
Q 1534 4441 1298 4117 
Q 1063 3794 1063 3188 
Q 1063 2581 1298 2256 
Q 1534 1931 1978 1931 
Q 2422 1931 2658 2245 
Q 2894 2559 2894 3150 
Q 2894 3772 2656 4106 
Q 2419 4441 1978 4441 
z
" transform="scale(0.015625)"/>
      <path id="DejaVuSerif-37" d="M 3609 4347 
L 1784 0 
L 1319 0 
L 3059 4153 
L 903 4153 
L 903 3578 
L 538 3578 
L 538 4666 
L 3609 4666 
L 3609 4347 
z
" transform="scale(0.015625)"/>
     </defs>
     <use xlink:href="#DejaVuSerif-30"/>
     <use xlink:href="#DejaVuSerif-2e" transform="translate(63.623047 0)"/>
     <use xlink:href="#DejaVuSerif-39" transform="translate(95.410156 0)"/>
     <use xlink:href="#DejaVuSerif-37" transform="translate(159.033203 0)"/>
    </g>
   </g>
   <g id="text_18">
    <!-- 0.96 -->
    <g style="fill: #0173b2" transform="translate(116.2167 301.753315) scale(0.085 -0.085)">
     <use xlink:href="#DejaVuSerif-30"/>
     <use xlink:href="#DejaVuSerif-2e" transform="translate(63.623047 0)"/>
     <use xlink:href="#DejaVuSerif-39" transform="translate(95.410156 0)"/>
     <use xlink:href="#DejaVuSerif-36" transform="translate(159.033203 0)"/>
    </g>
   </g>
   <g id="text_19">
    <!-- 0.97 -->
    <g style="fill: #0173b2" transform="translate(170.146027 300.218192) scale(0.085 -0.085)">
     <use xlink:href="#DejaVuSerif-30"/>
     <use xlink:href="#DejaVuSerif-2e" transform="translate(63.623047 0)"/>
     <use xlink:href="#DejaVuSerif-39" transform="translate(95.410156 0)"/>
     <use xlink:href="#DejaVuSerif-37" transform="translate(159.033203 0)"/>
    </g>
   </g>
   <g id="text_20">
    <!-- 0.97 -->
    <g style="fill: #0173b2" transform="translate(224.075353 299.776085) scale(0.085 -0.085)">
     <use xlink:href="#DejaVuSerif-30"/>
     <use xlink:href="#DejaVuSerif-2e" transform="translate(63.623047 0)"/>
     <use xlink:href="#DejaVuSerif-39" transform="translate(95.410156 0)"/>
     <use xlink:href="#DejaVuSerif-37" transform="translate(159.033203 0)"/>
    </g>
   </g>
   <g id="text_21">
    <!-- 0.96 -->
    <g style="fill: #0173b2" transform="translate(278.00468 303.106078) scale(0.085 -0.085)">
     <use xlink:href="#DejaVuSerif-30"/>
     <use xlink:href="#DejaVuSerif-2e" transform="translate(63.623047 0)"/>
     <use xlink:href="#DejaVuSerif-39" transform="translate(95.410156 0)"/>
     <use xlink:href="#DejaVuSerif-36" transform="translate(159.033203 0)"/>
    </g>
   </g>
   <g id="text_22">
    <!-- 0.97 -->
    <g style="fill: #0173b2" transform="translate(331.934006 300.575243) scale(0.085 -0.085)">
     <use xlink:href="#DejaVuSerif-30"/>
     <use xlink:href="#DejaVuSerif-2e" transform="translate(63.623047 0)"/>
     <use xlink:href="#DejaVuSerif-39" transform="translate(95.410156 0)"/>
     <use xlink:href="#DejaVuSerif-37" transform="translate(159.033203 0)"/>
    </g>
   </g>
   <g id="text_23">
    <!-- 0.97 -->
    <g style="fill: #0173b2" transform="translate(385.863333 301.173394) scale(0.085 -0.085)">
     <use xlink:href="#DejaVuSerif-30"/>
     <use xlink:href="#DejaVuSerif-2e" transform="translate(63.623047 0)"/>
     <use xlink:href="#DejaVuSerif-39" transform="translate(95.410156 0)"/>
     <use xlink:href="#DejaVuSerif-37" transform="translate(159.033203 0)"/>
    </g>
   </g>
   <g id="text_24">
    <!-- 0.97 -->
    <g style="fill: #0173b2" transform="translate(439.792659 300.962682) scale(0.085 -0.085)">
     <use xlink:href="#DejaVuSerif-30"/>
     <use xlink:href="#DejaVuSerif-2e" transform="translate(63.623047 0)"/>
     <use xlink:href="#DejaVuSerif-39" transform="translate(95.410156 0)"/>
     <use xlink:href="#DejaVuSerif-37" transform="translate(159.033203 0)"/>
    </g>
   </g>
   <g id="text_25">
    <!-- 1.24 -->
    <g style="fill: #de8f05" transform="translate(62.287374 232.448077) scale(0.085 -0.085)">
     <use xlink:href="#DejaVuSerif-31"/>
     <use xlink:href="#DejaVuSerif-2e" transform="translate(63.623047 0)"/>
     <use xlink:href="#DejaVuSerif-32" transform="translate(95.410156 0)"/>
     <use xlink:href="#DejaVuSerif-34" transform="translate(159.033203 0)"/>
    </g>
   </g>
   <g id="text_26">
    <!-- 1.34 -->
    <g style="fill: #de8f05" transform="translate(116.2167 207.63896) scale(0.085 -0.085)">
     <use xlink:href="#DejaVuSerif-31"/>
     <use xlink:href="#DejaVuSerif-2e" transform="translate(63.623047 0)"/>
     <use xlink:href="#DejaVuSerif-33" transform="translate(95.410156 0)"/>
     <use xlink:href="#DejaVuSerif-34" transform="translate(159.033203 0)"/>
    </g>
   </g>
   <g id="text_27">
    <!-- 1.40 -->
    <g style="fill: #de8f05" transform="translate(170.146027 193.478063) scale(0.085 -0.085)">
     <use xlink:href="#DejaVuSerif-31"/>
     <use xlink:href="#DejaVuSerif-2e" transform="translate(63.623047 0)"/>
     <use xlink:href="#DejaVuSerif-34" transform="translate(95.410156 0)"/>
     <use xlink:href="#DejaVuSerif-30" transform="translate(159.033203 0)"/>
    </g>
   </g>
   <g id="text_28">
    <!-- 1.40 -->
    <g style="fill: #de8f05" transform="translate(224.075353 194.23375) scale(0.085 -0.085)">
     <use xlink:href="#DejaVuSerif-31"/>
     <use xlink:href="#DejaVuSerif-2e" transform="translate(63.623047 0)"/>
     <use xlink:href="#DejaVuSerif-34" transform="translate(95.410156 0)"/>
     <use xlink:href="#DejaVuSerif-30" transform="translate(159.033203 0)"/>
    </g>
   </g>
   <g id="text_29">
    <!-- 1.37 -->
    <g style="fill: #de8f05" transform="translate(278.00468 199.994628) scale(0.085 -0.085)">
     <use xlink:href="#DejaVuSerif-31"/>
     <use xlink:href="#DejaVuSerif-2e" transform="translate(63.623047 0)"/>
     <use xlink:href="#DejaVuSerif-33" transform="translate(95.410156 0)"/>
     <use xlink:href="#DejaVuSerif-37" transform="translate(159.033203 0)"/>
    </g>
   </g>
   <g id="text_30">
    <!-- 1.37 -->
    <g style="fill: #de8f05" transform="translate(331.934006 201.711891) scale(0.085 -0.085)">
     <use xlink:href="#DejaVuSerif-31"/>
     <use xlink:href="#DejaVuSerif-2e" transform="translate(63.623047 0)"/>
     <use xlink:href="#DejaVuSerif-33" transform="translate(95.410156 0)"/>
     <use xlink:href="#DejaVuSerif-37" transform="translate(159.033203 0)"/>
    </g>
   </g>
   <g id="text_31">
    <!-- 1.36 -->
    <g style="fill: #de8f05" transform="translate(385.863333 204.460005) scale(0.085 -0.085)">
     <use xlink:href="#DejaVuSerif-31"/>
     <use xlink:href="#DejaVuSerif-2e" transform="translate(63.623047 0)"/>
     <use xlink:href="#DejaVuSerif-33" transform="translate(95.410156 0)"/>
     <use xlink:href="#DejaVuSerif-36" transform="translate(159.033203 0)"/>
    </g>
   </g>
   <g id="text_32">
    <!-- 1.35 -->
    <g style="fill: #de8f05" transform="translate(439.792659 206.749043) scale(0.085 -0.085)">
     <use xlink:href="#DejaVuSerif-31"/>
     <use xlink:href="#DejaVuSerif-2e" transform="translate(63.623047 0)"/>
     <use xlink:href="#DejaVuSerif-33" transform="translate(95.410156 0)"/>
     <use xlink:href="#DejaVuSerif-35" transform="translate(159.033203 0)"/>
    </g>
   </g>
   <g id="text_33">
    <!-- 1.41 -->
    <g style="fill: #029e73" transform="translate(62.287374 192.171275) scale(0.085 -0.085)">
     <use xlink:href="#DejaVuSerif-31"/>
     <use xlink:href="#DejaVuSerif-2e" transform="translate(63.623047 0)"/>
     <use xlink:href="#DejaVuSerif-34" transform="translate(95.410156 0)"/>
     <use xlink:href="#DejaVuSerif-31" transform="translate(159.033203 0)"/>
    </g>
   </g>
   <g id="text_34">
    <!-- 1.55 -->
    <g style="fill: #029e73" transform="translate(116.2167 155.617042) scale(0.085 -0.085)">
     <use xlink:href="#DejaVuSerif-31"/>
     <use xlink:href="#DejaVuSerif-2e" transform="translate(63.623047 0)"/>
     <use xlink:href="#DejaVuSerif-35" transform="translate(95.410156 0)"/>
     <use xlink:href="#DejaVuSerif-35" transform="translate(159.033203 0)"/>
    </g>
   </g>
   <g id="text_35">
    <!-- 1.69 -->
    <g style="fill: #029e73" transform="translate(170.146027 120.931023) scale(0.085 -0.085)">
     <use xlink:href="#DejaVuSerif-31"/>
     <use xlink:href="#DejaVuSerif-2e" transform="translate(63.623047 0)"/>
     <use xlink:href="#DejaVuSerif-36" transform="translate(95.410156 0)"/>
     <use xlink:href="#DejaVuSerif-39" transform="translate(159.033203 0)"/>
    </g>
   </g>
   <g id="text_36">
    <!-- 1.72 -->
    <g style="fill: #029e73" transform="translate(224.075353 113.264578) scale(0.085 -0.085)">
     <use xlink:href="#DejaVuSerif-31"/>
     <use xlink:href="#DejaVuSerif-2e" transform="translate(63.623047 0)"/>
     <use xlink:href="#DejaVuSerif-37" transform="translate(95.410156 0)"/>
     <use xlink:href="#DejaVuSerif-32" transform="translate(159.033203 0)"/>
    </g>
   </g>
   <g id="text_37">
    <!-- 1.73 -->
    <g style="fill: #029e73" transform="translate(278.00468 110.929767) scale(0.085 -0.085)">
     <use xlink:href="#DejaVuSerif-31"/>
     <use xlink:href="#DejaVuSerif-2e" transform="translate(63.623047 0)"/>
     <use xlink:href="#DejaVuSerif-37" transform="translate(95.410156 0)"/>
     <use xlink:href="#DejaVuSerif-33" transform="translate(159.033203 0)"/>
    </g>
   </g>
   <g id="text_38">
    <!-- 1.78 -->
    <g style="fill: #029e73" transform="translate(331.934006 100.496406) scale(0.085 -0.085)">
     <use xlink:href="#DejaVuSerif-31"/>
     <use xlink:href="#DejaVuSerif-2e" transform="translate(63.623047 0)"/>
     <use xlink:href="#DejaVuSerif-37" transform="translate(95.410156 0)"/>
     <use xlink:href="#DejaVuSerif-38" transform="translate(159.033203 0)"/>
    </g>
   </g>
   <g id="text_39">
    <!-- 1.76 -->
    <g style="fill: #029e73" transform="translate(385.863333 105.464919) scale(0.085 -0.085)">
     <use xlink:href="#DejaVuSerif-31"/>
     <use xlink:href="#DejaVuSerif-2e" transform="translate(63.623047 0)"/>
     <use xlink:href="#DejaVuSerif-37" transform="translate(95.410156 0)"/>
     <use xlink:href="#DejaVuSerif-36" transform="translate(159.033203 0)"/>
    </g>
   </g>
   <g id="text_40">
    <!-- 1.75 -->
    <g style="fill: #029e73" transform="translate(439.792659 107.790759) scale(0.085 -0.085)">
     <use xlink:href="#DejaVuSerif-31"/>
     <use xlink:href="#DejaVuSerif-2e" transform="translate(63.623047 0)"/>
     <use xlink:href="#DejaVuSerif-37" transform="translate(95.410156 0)"/>
     <use xlink:href="#DejaVuSerif-35" transform="translate(159.033203 0)"/>
    </g>
   </g>
   <g id="text_41">
    <!-- 1.45 -->
    <g style="fill: #d55e00" transform="translate(62.287374 181.070775) scale(0.085 -0.085)">
     <use xlink:href="#DejaVuSerif-31"/>
     <use xlink:href="#DejaVuSerif-2e" transform="translate(63.623047 0)"/>
     <use xlink:href="#DejaVuSerif-34" transform="translate(95.410156 0)"/>
     <use xlink:href="#DejaVuSerif-35" transform="translate(159.033203 0)"/>
    </g>
   </g>
   <g id="text_42">
    <!-- 1.63 -->
    <g style="fill: #d55e00" transform="translate(116.2167 136.156514) scale(0.085 -0.085)">
     <use xlink:href="#DejaVuSerif-31"/>
     <use xlink:href="#DejaVuSerif-2e" transform="translate(63.623047 0)"/>
     <use xlink:href="#DejaVuSerif-36" transform="translate(95.410156 0)"/>
     <use xlink:href="#DejaVuSerif-33" transform="translate(159.033203 0)"/>
    </g>
   </g>
   <g id="text_43">
    <!-- 1.75 -->
    <g style="fill: #d55e00" transform="translate(170.146027 107.240306) scale(0.085 -0.085)">
     <use xlink:href="#DejaVuSerif-31"/>
     <use xlink:href="#DejaVuSerif-2e" transform="translate(63.623047 0)"/>
     <use xlink:href="#DejaVuSerif-37" transform="translate(95.410156 0)"/>
     <use xlink:href="#DejaVuSerif-35" transform="translate(159.033203 0)"/>
    </g>
   </g>
   <g id="text_44">
    <!-- 1.84 -->
    <g style="fill: #d55e00" transform="translate(224.075353 85.513808) scale(0.085 -0.085)">
     <use xlink:href="#DejaVuSerif-31"/>
     <use xlink:href="#DejaVuSerif-2e" transform="translate(63.623047 0)"/>
     <use xlink:href="#DejaVuSerif-38" transform="translate(95.410156 0)"/>
     <use xlink:href="#DejaVuSerif-34" transform="translate(159.033203 0)"/>
    </g>
   </g>
   <g id="text_45">
    <!-- 1.88 -->
    <g style="fill: #d55e00" transform="translate(278.00468 74.417784) scale(0.085 -0.085)">
     <use xlink:href="#DejaVuSerif-31"/>
     <use xlink:href="#DejaVuSerif-2e" transform="translate(63.623047 0)"/>
     <use xlink:href="#DejaVuSerif-38" transform="translate(95.410156 0)"/>
     <use xlink:href="#DejaVuSerif-38" transform="translate(159.033203 0)"/>
    </g>
   </g>
   <g id="text_46">
    <!-- 1.98 -->
    <g style="fill: #d55e00" transform="translate(331.934006 50.316064) scale(0.085 -0.085)">
     <use xlink:href="#DejaVuSerif-31"/>
     <use xlink:href="#DejaVuSerif-2e" transform="translate(63.623047 0)"/>
     <use xlink:href="#DejaVuSerif-39" transform="translate(95.410156 0)"/>
     <use xlink:href="#DejaVuSerif-38" transform="translate(159.033203 0)"/>
    </g>
   </g>
   <g id="text_47">
    <!-- 2.00 -->
    <g style="fill: #d55e00" transform="translate(385.863333 45.987815) scale(0.085 -0.085)">
     <use xlink:href="#DejaVuSerif-32"/>
     <use xlink:href="#DejaVuSerif-2e" transform="translate(63.623047 0)"/>
     <use xlink:href="#DejaVuSerif-30" transform="translate(95.410156 0)"/>
     <use xlink:href="#DejaVuSerif-30" transform="translate(159.033203 0)"/>
    </g>
   </g>
   <g id="text_48">
    <!-- 2.00 -->
    <g style="fill: #d55e00" transform="translate(439.792659 43.906078) scale(0.085 -0.085)">
     <use xlink:href="#DejaVuSerif-32"/>
     <use xlink:href="#DejaVuSerif-2e" transform="translate(63.623047 0)"/>
     <use xlink:href="#DejaVuSerif-30" transform="translate(95.410156 0)"/>
     <use xlink:href="#DejaVuSerif-30" transform="translate(159.033203 0)"/>
    </g>
   </g>
   <g id="text_49">
    <!-- a -->
    <g style="fill: #262626" transform="translate(256.29111 386.033381) scale(0.13 -0.13)">
     <defs>
      <path id="DejaVuSerif-BoldItalic-61" d="M 2628 2738 
Q 2619 2925 2441 2925 
Q 2022 2925 1613 2425 
Q 1422 2194 1272 1422 
Q 1159 844 1240 620 
Q 1322 397 1619 397 
Q 1909 397 2092 656 
Q 2275 916 2388 1497 
L 2628 2738 
z
M 3691 3222 
L 3144 378 
L 3559 384 
L 3484 0 
L 2097 0 
L 2178 422 
Q 1834 -91 1225 -91 
Q 622 -91 353 307 
Q 84 706 222 1400 
Q 356 2097 956 2700 
Q 1666 3413 2616 3413 
Q 3553 3413 3691 3222 
z
" transform="scale(0.015625)"/>
     </defs>
     <use xlink:href="#DejaVuSerif-BoldItalic-61"/>
    </g>
   </g>
   <g id="text_50">
    <!-- Throughput ratio -->
    <g style="fill: #262626" transform="translate(199.454157 17.837812) scale(0.14 -0.14)">
     <defs>
      <path id="DejaVuSerif-54" d="M 1222 0 
L 1222 331 
L 1819 331 
L 1819 4294 
L 447 4294 
L 447 3566 
L 63 3566 
L 63 4666 
L 4206 4666 
L 4206 3566 
L 3822 3566 
L 3822 4294 
L 2450 4294 
L 2450 331 
L 3047 331 
L 3047 0 
L 1222 0 
z
" transform="scale(0.015625)"/>
      <path id="DejaVuSerif-72" d="M 3059 3328 
L 3059 2497 
L 2728 2497 
Q 2713 2744 2591 2866 
Q 2469 2988 2234 2988 
Q 1809 2988 1582 2694 
Q 1356 2400 1356 1850 
L 1356 331 
L 2022 331 
L 2022 0 
L 263 0 
L 263 331 
L 781 331 
L 781 2994 
L 231 2994 
L 231 3322 
L 1356 3322 
L 1356 2731 
Q 1525 3078 1790 3245 
Q 2056 3413 2438 3413 
Q 2578 3413 2733 3391 
Q 2888 3369 3059 3328 
z
" transform="scale(0.015625)"/>
      <path id="DejaVuSerif-75" d="M 2266 3322 
L 3341 3322 
L 3341 331 
L 3884 331 
L 3884 0 
L 2766 0 
L 2766 588 
Q 2606 256 2353 82 
Q 2100 -91 1766 -91 
Q 1213 -91 952 223 
Q 691 538 691 1209 
L 691 2988 
L 172 2988 
L 172 3322 
L 1269 3322 
L 1269 1388 
Q 1269 781 1417 556 
Q 1566 331 1947 331 
Q 2347 331 2556 625 
Q 2766 919 2766 1478 
L 2766 2988 
L 2266 2988 
L 2266 3322 
z
" transform="scale(0.015625)"/>
      <path id="DejaVuSerif-67" d="M 3359 2988 
L 3359 72 
Q 3359 -644 2965 -1033 
Q 2572 -1422 1844 -1422 
Q 1516 -1422 1216 -1362 
Q 916 -1303 641 -1184 
L 641 -488 
L 941 -488 
Q 997 -813 1206 -963 
Q 1416 -1113 1806 -1113 
Q 2313 -1113 2548 -827 
Q 2784 -541 2784 72 
L 2784 519 
Q 2616 206 2355 57 
Q 2094 -91 1709 -91 
Q 1097 -91 708 395 
Q 319 881 319 1663 
Q 319 2444 706 2928 
Q 1094 3413 1709 3413 
Q 2094 3413 2355 3264 
Q 2616 3116 2784 2803 
L 2784 3322 
L 3909 3322 
L 3909 2988 
L 3359 2988 
z
M 2784 1825 
Q 2784 2422 2554 2737 
Q 2325 3053 1888 3053 
Q 1444 3053 1217 2703 
Q 991 2353 991 1663 
Q 991 975 1217 622 
Q 1444 269 1888 269 
Q 2325 269 2554 583 
Q 2784 897 2784 1497 
L 2784 1825 
z
" transform="scale(0.015625)"/>
      <path id="DejaVuSerif-70" d="M 1313 1825 
L 1313 1497 
Q 1313 897 1542 583 
Q 1772 269 2209 269 
Q 2650 269 2876 622 
Q 3103 975 3103 1663 
Q 3103 2353 2876 2703 
Q 2650 3053 2209 3053 
Q 1772 3053 1542 2737 
Q 1313 2422 1313 1825 
z
M 738 2988 
L 184 2988 
L 184 3322 
L 1313 3322 
L 1313 2803 
Q 1481 3116 1742 3264 
Q 2003 3413 2388 3413 
Q 3000 3413 3387 2928 
Q 3775 2444 3775 1663 
Q 3775 881 3387 395 
Q 3000 -91 2388 -91 
Q 2003 -91 1742 57 
Q 1481 206 1313 519 
L 1313 -997 
L 1856 -997 
L 1856 -1331 
L 184 -1331 
L 184 -997 
L 738 -997 
L 738 2988 
z
" transform="scale(0.015625)"/>
     </defs>
     <use xlink:href="#DejaVuSerif-54"/>
     <use xlink:href="#DejaVuSerif-68" transform="translate(66.699219 0)"/>
     <use xlink:href="#DejaVuSerif-72" transform="translate(131.103516 0)"/>
     <use xlink:href="#DejaVuSerif-6f" transform="translate(178.90625 0)"/>
     <use xlink:href="#DejaVuSerif-75" transform="translate(239.111328 0)"/>
     <use xlink:href="#DejaVuSerif-67" transform="translate(303.515625 0)"/>
     <use xlink:href="#DejaVuSerif-68" transform="translate(367.529297 0)"/>
     <use xlink:href="#DejaVuSerif-70" transform="translate(431.933594 0)"/>
     <use xlink:href="#DejaVuSerif-75" transform="translate(495.947266 0)"/>
     <use xlink:href="#DejaVuSerif-74" transform="translate(560.351562 0)"/>
     <use xlink:href="#DejaVuSerif-20" transform="translate(600.537109 0)"/>
     <use xlink:href="#DejaVuSerif-72" transform="translate(632.324219 0)"/>
     <use xlink:href="#DejaVuSerif-61" transform="translate(680.126953 0)"/>
     <use xlink:href="#DejaVuSerif-74" transform="translate(739.746094 0)"/>
     <use xlink:href="#DejaVuSerif-69" transform="translate(779.931641 0)"/>
     <use xlink:href="#DejaVuSerif-6f" transform="translate(811.914062 0)"/>
    </g>
    <!-- mean ratio = 1.453 -->
    <g style="fill: #262626" transform="translate(191.674313 33.713812) scale(0.14 -0.14)">
     <defs>
      <path id="DejaVuSerif-6d" d="M 3316 2675 
Q 3481 3041 3739 3227 
Q 3997 3413 4341 3413 
Q 4863 3413 5119 3089 
Q 5375 2766 5375 2113 
L 5375 331 
L 5894 331 
L 5894 0 
L 4300 0 
L 4300 331 
L 4800 331 
L 4800 2047 
Q 4800 2556 4650 2772 
Q 4500 2988 4153 2988 
Q 3769 2988 3567 2697 
Q 3366 2406 3366 1850 
L 3366 331 
L 3866 331 
L 3866 0 
L 2291 0 
L 2291 331 
L 2791 331 
L 2791 2069 
Q 2791 2566 2641 2777 
Q 2491 2988 2144 2988 
Q 1759 2988 1557 2697 
Q 1356 2406 1356 1850 
L 1356 331 
L 1856 331 
L 1856 0 
L 263 0 
L 263 331 
L 781 331 
L 781 2994 
L 231 2994 
L 231 3322 
L 1356 3322 
L 1356 2731 
Q 1516 3063 1762 3238 
Q 2009 3413 2322 3413 
Q 2709 3413 2968 3220 
Q 3228 3028 3316 2675 
z
" transform="scale(0.015625)"/>
      <path id="DejaVuSerif-6e" d="M 263 0 
L 263 331 
L 781 331 
L 781 2988 
L 231 2988 
L 231 3322 
L 1356 3322 
L 1356 2731 
Q 1516 3069 1770 3241 
Q 2025 3413 2363 3413 
Q 2913 3413 3172 3097 
Q 3431 2781 3431 2113 
L 3431 331 
L 3944 331 
L 3944 0 
L 2356 0 
L 2356 331 
L 2853 331 
L 2853 1931 
Q 2853 2541 2703 2767 
Q 2553 2994 2175 2994 
Q 1775 2994 1565 2701 
Q 1356 2409 1356 1850 
L 1356 331 
L 1856 331 
L 1856 0 
L 263 0 
z
" transform="scale(0.015625)"/>
      <path id="DejaVuSerif-3d" d="M 678 2894 
L 4684 2894 
L 4684 2394 
L 678 2394 
L 678 2894 
z
M 678 1619 
L 4684 1619 
L 4684 1119 
L 678 1119 
L 678 1619 
z
" transform="scale(0.015625)"/>
     </defs>
     <use xlink:href="#DejaVuSerif-6d"/>
     <use xlink:href="#DejaVuSerif-65" transform="translate(94.824219 0)"/>
     <use xlink:href="#DejaVuSerif-61" transform="translate(154.003906 0)"/>
     <use xlink:href="#DejaVuSerif-6e" transform="translate(213.623047 0)"/>
     <use xlink:href="#DejaVuSerif-20" transform="translate(278.027344 0)"/>
     <use xlink:href="#DejaVuSerif-72" transform="translate(309.814453 0)"/>
     <use xlink:href="#DejaVuSerif-61" transform="translate(357.617188 0)"/>
     <use xlink:href="#DejaVuSerif-74" transform="translate(417.236328 0)"/>
     <use xlink:href="#DejaVuSerif-69" transform="translate(457.421875 0)"/>
     <use xlink:href="#DejaVuSerif-6f" transform="translate(489.404297 0)"/>
     <use xlink:href="#DejaVuSerif-20" transform="translate(549.609375 0)"/>
     <use xlink:href="#DejaVuSerif-3d" transform="translate(581.396484 0)"/>
     <use xlink:href="#DejaVuSerif-20" transform="translate(665.185547 0)"/>
     <use xlink:href="#DejaVuSerif-31" transform="translate(696.972656 0)"/>
     <use xlink:href="#DejaVuSerif-2e" transform="translate(760.595703 0)"/>
     <use xlink:href="#DejaVuSerif-34" transform="translate(792.382812 0)"/>
     <use xlink:href="#DejaVuSerif-35" transform="translate(856.005859 0)"/>
     <use xlink:href="#DejaVuSerif-33" transform="translate(919.628906 0)"/>
    </g>
   </g>
  </g>
  <g id="axes_2">
   <g id="patch_7">
    <path d="M 530.419186 324.833812 
L 945.675 324.833812 
L 945.675 39.713812 
L 530.419186 39.713812 
z
" style="fill: #ffffff"/>
   </g>
   <g id="matplotlib.axis_3">
    <g id="xtick_9">
     <g id="line2d_20">
      <path d="M 549.29445 324.833812 
L 549.29445 39.713812 
" clip-path="url(#p2de827d7d9)" style="fill: none; stroke-dasharray: 2.96,1.28; stroke-dashoffset: 0; stroke: #cccccc; stroke-opacity: 0.8; stroke-width: 0.8"/>
     </g>
     <g id="text_51">
      <!-- 8 -->
      <g style="fill: #262626" transform="translate(545.795075 344.792094) scale(0.11 -0.11)">
       <use xlink:href="#DejaVuSerif-38"/>
      </g>
     </g>
    </g>
    <g id="xtick_10">
     <g id="line2d_21">
      <path d="M 603.223777 324.833812 
L 603.223777 39.713812 
" clip-path="url(#p2de827d7d9)" style="fill: none; stroke-dasharray: 2.96,1.28; stroke-dashoffset: 0; stroke: #cccccc; stroke-opacity: 0.8; stroke-width: 0.8"/>
     </g>
     <g id="text_52">
      <!-- 16 -->
      <g style="fill: #262626" transform="translate(596.225027 344.792094) scale(0.11 -0.11)">
       <use xlink:href="#DejaVuSerif-31"/>
       <use xlink:href="#DejaVuSerif-36" transform="translate(63.623047 0)"/>
      </g>
     </g>
    </g>
    <g id="xtick_11">
     <g id="line2d_22">
      <path d="M 657.153103 324.833812 
L 657.153103 39.713812 
" clip-path="url(#p2de827d7d9)" style="fill: none; stroke-dasharray: 2.96,1.28; stroke-dashoffset: 0; stroke: #cccccc; stroke-opacity: 0.8; stroke-width: 0.8"/>
     </g>
     <g id="text_53">
      <!-- 24 -->
      <g style="fill: #262626" transform="translate(650.154353 344.792094) scale(0.11 -0.11)">
       <use xlink:href="#DejaVuSerif-32"/>
       <use xlink:href="#DejaVuSerif-34" transform="translate(63.623047 0)"/>
      </g>
     </g>
    </g>
    <g id="xtick_12">
     <g id="line2d_23">
      <path d="M 711.08243 324.833812 
L 711.08243 39.713812 
" clip-path="url(#p2de827d7d9)" style="fill: none; stroke-dasharray: 2.96,1.28; stroke-dashoffset: 0; stroke: #cccccc; stroke-opacity: 0.8; stroke-width: 0.8"/>
     </g>
     <g id="text_54">
      <!-- 32 -->
      <g style="fill: #262626" transform="translate(704.08368 344.792094) scale(0.11 -0.11)">
       <use xlink:href="#DejaVuSerif-33"/>
       <use xlink:href="#DejaVuSerif-32" transform="translate(63.623047 0)"/>
      </g>
     </g>
    </g>
    <g id="xtick_13">
     <g id="line2d_24">
      <path d="M 765.011756 324.833812 
L 765.011756 39.713812 
" clip-path="url(#p2de827d7d9)" style="fill: none; stroke-dasharray: 2.96,1.28; stroke-dashoffset: 0; stroke: #cccccc; stroke-opacity: 0.8; stroke-width: 0.8"/>
     </g>
     <g id="text_55">
      <!-- 40 -->
      <g style="fill: #262626" transform="translate(758.013006 344.792094) scale(0.11 -0.11)">
       <use xlink:href="#DejaVuSerif-34"/>
       <use xlink:href="#DejaVuSerif-30" transform="translate(63.623047 0)"/>
      </g>
     </g>
    </g>
    <g id="xtick_14">
     <g id="line2d_25">
      <path d="M 818.941083 324.833812 
L 818.941083 39.713812 
" clip-path="url(#p2de827d7d9)" style="fill: none; stroke-dasharray: 2.96,1.28; stroke-dashoffset: 0; stroke: #cccccc; stroke-opacity: 0.8; stroke-width: 0.8"/>
     </g>
     <g id="text_56">
      <!-- 48 -->
      <g style="fill: #262626" transform="translate(811.942333 344.792094) scale(0.11 -0.11)">
       <use xlink:href="#DejaVuSerif-34"/>
       <use xlink:href="#DejaVuSerif-38" transform="translate(63.623047 0)"/>
      </g>
     </g>
    </g>
    <g id="xtick_15">
     <g id="line2d_26">
      <path d="M 872.870409 324.833812 
L 872.870409 39.713812 
" clip-path="url(#p2de827d7d9)" style="fill: none; stroke-dasharray: 2.96,1.28; stroke-dashoffset: 0; stroke: #cccccc; stroke-opacity: 0.8; stroke-width: 0.8"/>
     </g>
     <g id="text_57">
      <!-- 56 -->
      <g style="fill: #262626" transform="translate(865.871659 344.792094) scale(0.11 -0.11)">
       <use xlink:href="#DejaVuSerif-35"/>
       <use xlink:href="#DejaVuSerif-36" transform="translate(63.623047 0)"/>
      </g>
     </g>
    </g>
    <g id="xtick_16">
     <g id="line2d_27">
      <path d="M 926.799736 324.833812 
L 926.799736 39.713812 
" clip-path="url(#p2de827d7d9)" style="fill: none; stroke-dasharray: 2.96,1.28; stroke-dashoffset: 0; stroke: #cccccc; stroke-opacity: 0.8; stroke-width: 0.8"/>
     </g>
     <g id="text_58">
      <!-- 64 -->
      <g style="fill: #262626" transform="translate(919.800986 344.792094) scale(0.11 -0.11)">
       <use xlink:href="#DejaVuSerif-36"/>
       <use xlink:href="#DejaVuSerif-34" transform="translate(63.623047 0)"/>
      </g>
     </g>
    </g>
    <g id="text_59">
     <!-- Batch size -->
     <g style="fill: #262626" transform="translate(704.204437 360.957719) scale(0.13 -0.13)">
      <use xlink:href="#DejaVuSerif-42"/>
      <use xlink:href="#DejaVuSerif-61" transform="translate(73.486328 0)"/>
      <use xlink:href="#DejaVuSerif-74" transform="translate(133.105469 0)"/>
      <use xlink:href="#DejaVuSerif-63" transform="translate(173.291016 0)"/>
      <use xlink:href="#DejaVuSerif-68" transform="translate(229.296875 0)"/>
      <use xlink:href="#DejaVuSerif-20" transform="translate(293.701172 0)"/>
      <use xlink:href="#DejaVuSerif-73" transform="translate(325.488281 0)"/>
      <use xlink:href="#DejaVuSerif-69" transform="translate(376.806641 0)"/>
      <use xlink:href="#DejaVuSerif-7a" transform="translate(408.789062 0)"/>
      <use xlink:href="#DejaVuSerif-65" transform="translate(461.474609 0)"/>
     </g>
    </g>
   </g>
   <g id="matplotlib.axis_4">
    <g id="ytick_7">
     <g id="line2d_28">
      <path d="M 530.419186 282.828189 
L 945.675 282.828189 
" clip-path="url(#p2de827d7d9)" style="fill: none; stroke-dasharray: 2.96,1.28; stroke-dashoffset: 0; stroke: #cccccc; stroke-opacity: 0.8; stroke-width: 0.8"/>
     </g>
     <g id="text_60">
      <!-- 0.7 -->
      <g style="fill: #262626" transform="translate(501.325749 287.00733) scale(0.11 -0.11)">
       <use xlink:href="#DejaVuSerif-30"/>
       <use xlink:href="#DejaVuSerif-2e" transform="translate(63.623047 0)"/>
       <use xlink:href="#DejaVuSerif-37" transform="translate(95.410156 0)"/>
      </g>
     </g>
    </g>
    <g id="ytick_8">
     <g id="line2d_29">
      <path d="M 530.419186 233.548398 
L 945.675 233.548398 
" clip-path="url(#p2de827d7d9)" style="fill: none; stroke-dasharray: 2.96,1.28; stroke-dashoffset: 0; stroke: #cccccc; stroke-opacity: 0.8; stroke-width: 0.8"/>
     </g>
     <g id="text_61">
      <!-- 0.8 -->
      <g style="fill: #262626" transform="translate(501.325749 237.727538) scale(0.11 -0.11)">
       <use xlink:href="#DejaVuSerif-30"/>
       <use xlink:href="#DejaVuSerif-2e" transform="translate(63.623047 0)"/>
       <use xlink:href="#DejaVuSerif-38" transform="translate(95.410156 0)"/>
      </g>
     </g>
    </g>
    <g id="ytick_9">
     <g id="line2d_30">
      <path d="M 530.419186 184.268606 
L 945.675 184.268606 
" clip-path="url(#p2de827d7d9)" style="fill: none; stroke-dasharray: 2.96,1.28; stroke-dashoffset: 0; stroke: #cccccc; stroke-opacity: 0.8; stroke-width: 0.8"/>
     </g>
     <g id="text_62">
      <!-- 0.9 -->
      <g style="fill: #262626" transform="translate(501.325749 188.447747) scale(0.11 -0.11)">
       <use xlink:href="#DejaVuSerif-30"/>
       <use xlink:href="#DejaVuSerif-2e" transform="translate(63.623047 0)"/>
       <use xlink:href="#DejaVuSerif-39" transform="translate(95.410156 0)"/>
      </g>
     </g>
    </g>
    <g id="ytick_10">
     <g id="line2d_31">
      <path d="M 530.419186 134.988814 
L 945.675 134.988814 
" clip-path="url(#p2de827d7d9)" style="fill: none; stroke-dasharray: 2.96,1.28; stroke-dashoffset: 0; stroke: #cccccc; stroke-opacity: 0.8; stroke-width: 0.8"/>
     </g>
     <g id="text_63">
      <!-- 1.0 -->
      <g style="fill: #262626" transform="translate(501.325749 139.167955) scale(0.11 -0.11)">
       <use xlink:href="#DejaVuSerif-31"/>
       <use xlink:href="#DejaVuSerif-2e" transform="translate(63.623047 0)"/>
       <use xlink:href="#DejaVuSerif-30" transform="translate(95.410156 0)"/>
      </g>
     </g>
    </g>
    <g id="ytick_11">
     <g id="line2d_32">
      <path d="M 530.419186 85.709023 
L 945.675 85.709023 
" clip-path="url(#p2de827d7d9)" style="fill: none; stroke-dasharray: 2.96,1.28; stroke-dashoffset: 0; stroke: #cccccc; stroke-opacity: 0.8; stroke-width: 0.8"/>
     </g>
     <g id="text_64">
      <!-- 1.1 -->
      <g style="fill: #262626" transform="translate(501.325749 89.888163) scale(0.11 -0.11)">
       <use xlink:href="#DejaVuSerif-31"/>
       <use xlink:href="#DejaVuSerif-2e" transform="translate(63.623047 0)"/>
       <use xlink:href="#DejaVuSerif-31" transform="translate(95.410156 0)"/>
      </g>
     </g>
    </g>
    <g id="text_65">
     <!-- Ratio -->
     <g style="fill: #262626" transform="translate(494.622155 199.794359) rotate(-90) scale(0.13 -0.13)">
      <use xlink:href="#DejaVuSerif-52"/>
      <use xlink:href="#DejaVuSerif-61" transform="translate(77.542969 0)"/>
      <use xlink:href="#DejaVuSerif-74" transform="translate(137.162109 0)"/>
      <use xlink:href="#DejaVuSerif-69" transform="translate(177.347656 0)"/>
      <use xlink:href="#DejaVuSerif-6f" transform="translate(209.330078 0)"/>
     </g>
    </g>
   </g>
   <g id="line2d_33">
    <path d="M 549.29445 111.359748 
L 603.223777 71.237691 
L 657.153103 52.673812 
L 711.08243 61.000366 
L 765.011756 67.738015 
L 818.941083 67.586938 
L 872.870409 67.518601 
L 926.799736 72.631826 
" clip-path="url(#p2de827d7d9)" style="fill: none; stroke: #0173b2; stroke-width: 1.8; stroke-linecap: round"/>
    <g clip-path="url(#p2de827d7d9)">
     <use xlink:href="#m2f321c57d0" x="549.29445" y="111.359748" style="fill: #0173b2"/>
     <use xlink:href="#m2f321c57d0" x="603.223777" y="71.237691" style="fill: #0173b2"/>
     <use xlink:href="#m2f321c57d0" x="657.153103" y="52.673812" style="fill: #0173b2"/>
     <use xlink:href="#m2f321c57d0" x="711.08243" y="61.000366" style="fill: #0173b2"/>
     <use xlink:href="#m2f321c57d0" x="765.011756" y="67.738015" style="fill: #0173b2"/>
     <use xlink:href="#m2f321c57d0" x="818.941083" y="67.586938" style="fill: #0173b2"/>
     <use xlink:href="#m2f321c57d0" x="872.870409" y="67.518601" style="fill: #0173b2"/>
     <use xlink:href="#m2f321c57d0" x="926.799736" y="72.631826" style="fill: #0173b2"/>
    </g>
   </g>
   <g id="line2d_34">
    <path d="M 549.29445 139.125857 
L 603.223777 125.514009 
L 657.153103 132.812861 
L 711.08243 157.077848 
L 765.011756 176.671312 
L 818.941083 185.365031 
L 872.870409 196.342876 
L 926.799736 209.276661 
" clip-path="url(#p2de827d7d9)" style="fill: none; stroke: #de8f05; stroke-width: 1.8; stroke-linecap: round"/>
    <g clip-path="url(#p2de827d7d9)">
     <use xlink:href="#ma529e454c1" x="549.29445" y="139.125857" style="fill: #de8f05"/>
     <use xlink:href="#ma529e454c1" x="603.223777" y="125.514009" style="fill: #de8f05"/>
     <use xlink:href="#ma529e454c1" x="657.153103" y="132.812861" style="fill: #de8f05"/>
     <use xlink:href="#ma529e454c1" x="711.08243" y="157.077848" style="fill: #de8f05"/>
     <use xlink:href="#ma529e454c1" x="765.011756" y="176.671312" style="fill: #de8f05"/>
     <use xlink:href="#ma529e454c1" x="818.941083" y="185.365031" style="fill: #de8f05"/>
     <use xlink:href="#ma529e454c1" x="872.870409" y="196.342876" style="fill: #de8f05"/>
     <use xlink:href="#ma529e454c1" x="926.799736" y="209.276661" style="fill: #de8f05"/>
    </g>
   </g>
   <g id="line2d_35">
    <path d="M 549.29445 142.923251 
L 603.223777 143.994211 
L 657.153103 172.796349 
L 711.08243 205.010437 
L 765.011756 229.847507 
L 818.941083 241.515147 
L 872.870409 259.753609 
L 926.799736 277.725179 
" clip-path="url(#p2de827d7d9)" style="fill: none; stroke: #029e73; stroke-width: 1.8; stroke-linecap: round"/>
    <g clip-path="url(#p2de827d7d9)">
     <use xlink:href="#m16d360e48a" x="549.29445" y="142.923251" style="fill: #029e73"/>
     <use xlink:href="#m16d360e48a" x="603.223777" y="143.994211" style="fill: #029e73"/>
     <use xlink:href="#m16d360e48a" x="657.153103" y="172.796349" style="fill: #029e73"/>
     <use xlink:href="#m16d360e48a" x="711.08243" y="205.010437" style="fill: #029e73"/>
     <use xlink:href="#m16d360e48a" x="765.011756" y="229.847507" style="fill: #029e73"/>
     <use xlink:href="#m16d360e48a" x="818.941083" y="241.515147" style="fill: #029e73"/>
     <use xlink:href="#m16d360e48a" x="872.870409" y="259.753609" style="fill: #029e73"/>
     <use xlink:href="#m16d360e48a" x="926.799736" y="277.725179" style="fill: #029e73"/>
    </g>
   </g>
   <g id="line2d_36">
    <path d="M 549.29445 125.073375 
L 603.223777 146.982193 
L 657.153103 192.68127 
L 711.08243 228.976766 
L 765.011756 254.216747 
L 818.941083 271.443676 
L 872.870409 293.071139 
L 926.799736 311.873812 
" clip-path="url(#p2de827d7d9)" style="fill: none; stroke: #d55e00; stroke-width: 1.8; stroke-linecap: round"/>
    <g clip-path="url(#p2de827d7d9)">
     <use xlink:href="#m6c4082f05e" x="549.29445" y="125.073375" style="fill: #d55e00"/>
     <use xlink:href="#m6c4082f05e" x="603.223777" y="146.982193" style="fill: #d55e00"/>
     <use xlink:href="#m6c4082f05e" x="657.153103" y="192.68127" style="fill: #d55e00"/>
     <use xlink:href="#m6c4082f05e" x="711.08243" y="228.976766" style="fill: #d55e00"/>
     <use xlink:href="#m6c4082f05e" x="765.011756" y="254.216747" style="fill: #d55e00"/>
     <use xlink:href="#m6c4082f05e" x="818.941083" y="271.443676" style="fill: #d55e00"/>
     <use xlink:href="#m6c4082f05e" x="872.870409" y="293.071139" style="fill: #d55e00"/>
     <use xlink:href="#m6c4082f05e" x="926.799736" y="311.873812" style="fill: #d55e00"/>
    </g>
   </g>
   <g id="line2d_37">
    <path d="M 530.419186 134.988814 
L 945.675 134.988814 
" clip-path="url(#p2de827d7d9)" style="fill: none; stroke-dasharray: 5.55,2.4; stroke-dashoffset: 0; stroke: #ff0000; stroke-width: 1.5"/>
   </g>
   <g id="patch_8">
    <path d="M 530.419186 324.833812 
L 530.419186 39.713812 
" style="fill: none; stroke: #cccccc; stroke-width: 1.25; stroke-linejoin: miter; stroke-linecap: square"/>
   </g>
   <g id="patch_9">
    <path d="M 945.675 324.833812 
L 945.675 39.713812 
" style="fill: none; stroke: #cccccc; stroke-width: 1.25; stroke-linejoin: miter; stroke-linecap: square"/>
   </g>
   <g id="patch_10">
    <path d="M 530.419186 324.833812 
L 945.675 324.833812 
" style="fill: none; stroke: #cccccc; stroke-width: 1.25; stroke-linejoin: miter; stroke-linecap: square"/>
   </g>
   <g id="patch_11">
    <path d="M 530.419186 39.713812 
L 945.675 39.713812 
" style="fill: none; stroke: #cccccc; stroke-width: 1.25; stroke-linejoin: miter; stroke-linecap: square"/>
   </g>
   <g id="text_66">
    <!-- 1.05 -->
    <g style="fill: #0173b2" transform="translate(539.83156 102.592014) scale(0.085 -0.085)">
     <use xlink:href="#DejaVuSerif-31"/>
     <use xlink:href="#DejaVuSerif-2e" transform="translate(63.623047 0)"/>
     <use xlink:href="#DejaVuSerif-30" transform="translate(95.410156 0)"/>
     <use xlink:href="#DejaVuSerif-35" transform="translate(159.033203 0)"/>
    </g>
   </g>
   <g id="text_67">
    <!-- 1.13 -->
    <g style="fill: #0173b2" transform="translate(593.760886 62.469957) scale(0.085 -0.085)">
     <use xlink:href="#DejaVuSerif-31"/>
     <use xlink:href="#DejaVuSerif-2e" transform="translate(63.623047 0)"/>
     <use xlink:href="#DejaVuSerif-31" transform="translate(95.410156 0)"/>
     <use xlink:href="#DejaVuSerif-33" transform="translate(159.033203 0)"/>
    </g>
   </g>
   <g id="text_68">
    <!-- 1.17 -->
    <g style="fill: #0173b2" transform="translate(647.690213 43.906078) scale(0.085 -0.085)">
     <use xlink:href="#DejaVuSerif-31"/>
     <use xlink:href="#DejaVuSerif-2e" transform="translate(63.623047 0)"/>
     <use xlink:href="#DejaVuSerif-31" transform="translate(95.410156 0)"/>
     <use xlink:href="#DejaVuSerif-37" transform="translate(159.033203 0)"/>
    </g>
   </g>
   <g id="text_69">
    <!-- 1.15 -->
    <g style="fill: #0173b2" transform="translate(701.619539 52.232631) scale(0.085 -0.085)">
     <use xlink:href="#DejaVuSerif-31"/>
     <use xlink:href="#DejaVuSerif-2e" transform="translate(63.623047 0)"/>
     <use xlink:href="#DejaVuSerif-31" transform="translate(95.410156 0)"/>
     <use xlink:href="#DejaVuSerif-35" transform="translate(159.033203 0)"/>
    </g>
   </g>
   <g id="text_70">
    <!-- 1.14 -->
    <g style="fill: #0173b2" transform="translate(755.548866 58.970281) scale(0.085 -0.085)">
     <use xlink:href="#DejaVuSerif-31"/>
     <use xlink:href="#DejaVuSerif-2e" transform="translate(63.623047 0)"/>
     <use xlink:href="#DejaVuSerif-31" transform="translate(95.410156 0)"/>
     <use xlink:href="#DejaVuSerif-34" transform="translate(159.033203 0)"/>
    </g>
   </g>
   <g id="text_71">
    <!-- 1.14 -->
    <g style="fill: #0173b2" transform="translate(809.478192 58.819204) scale(0.085 -0.085)">
     <use xlink:href="#DejaVuSerif-31"/>
     <use xlink:href="#DejaVuSerif-2e" transform="translate(63.623047 0)"/>
     <use xlink:href="#DejaVuSerif-31" transform="translate(95.410156 0)"/>
     <use xlink:href="#DejaVuSerif-34" transform="translate(159.033203 0)"/>
    </g>
   </g>
   <g id="text_72">
    <!-- 1.14 -->
    <g style="fill: #0173b2" transform="translate(863.407519 58.750867) scale(0.085 -0.085)">
     <use xlink:href="#DejaVuSerif-31"/>
     <use xlink:href="#DejaVuSerif-2e" transform="translate(63.623047 0)"/>
     <use xlink:href="#DejaVuSerif-31" transform="translate(95.410156 0)"/>
     <use xlink:href="#DejaVuSerif-34" transform="translate(159.033203 0)"/>
    </g>
   </g>
   <g id="text_73">
    <!-- 1.13 -->
    <g style="fill: #0173b2" transform="translate(917.336845 63.864091) scale(0.085 -0.085)">
     <use xlink:href="#DejaVuSerif-31"/>
     <use xlink:href="#DejaVuSerif-2e" transform="translate(63.623047 0)"/>
     <use xlink:href="#DejaVuSerif-31" transform="translate(95.410156 0)"/>
     <use xlink:href="#DejaVuSerif-33" transform="translate(159.033203 0)"/>
    </g>
   </g>
   <g id="text_74">
    <!-- 0.99 -->
    <g style="fill: #de8f05" transform="translate(539.83156 130.358123) scale(0.085 -0.085)">
     <use xlink:href="#DejaVuSerif-30"/>
     <use xlink:href="#DejaVuSerif-2e" transform="translate(63.623047 0)"/>
     <use xlink:href="#DejaVuSerif-39" transform="translate(95.410156 0)"/>
     <use xlink:href="#DejaVuSerif-39" transform="translate(159.033203 0)"/>
    </g>
   </g>
   <g id="text_75">
    <!-- 1.02 -->
    <g style="fill: #de8f05" transform="translate(593.760886 116.746275) scale(0.085 -0.085)">
     <use xlink:href="#DejaVuSerif-31"/>
     <use xlink:href="#DejaVuSerif-2e" transform="translate(63.623047 0)"/>
     <use xlink:href="#DejaVuSerif-30" transform="translate(95.410156 0)"/>
     <use xlink:href="#DejaVuSerif-32" transform="translate(159.033203 0)"/>
    </g>
   </g>
   <g id="text_76">
    <!-- 1.00 -->
    <g style="fill: #de8f05" transform="translate(647.690213 124.045126) scale(0.085 -0.085)">
     <use xlink:href="#DejaVuSerif-31"/>
     <use xlink:href="#DejaVuSerif-2e" transform="translate(63.623047 0)"/>
     <use xlink:href="#DejaVuSerif-30" transform="translate(95.410156 0)"/>
     <use xlink:href="#DejaVuSerif-30" transform="translate(159.033203 0)"/>
    </g>
   </g>
   <g id="text_77">
    <!-- 0.96 -->
    <g style="fill: #de8f05" transform="translate(701.619539 148.310113) scale(0.085 -0.085)">
     <use xlink:href="#DejaVuSerif-30"/>
     <use xlink:href="#DejaVuSerif-2e" transform="translate(63.623047 0)"/>
     <use xlink:href="#DejaVuSerif-39" transform="translate(95.410156 0)"/>
     <use xlink:href="#DejaVuSerif-36" transform="translate(159.033203 0)"/>
    </g>
   </g>
   <g id="text_78">
    <!-- 0.92 -->
    <g style="fill: #de8f05" transform="translate(755.548866 167.903578) scale(0.085 -0.085)">
     <use xlink:href="#DejaVuSerif-30"/>
     <use xlink:href="#DejaVuSerif-2e" transform="translate(63.623047 0)"/>
     <use xlink:href="#DejaVuSerif-39" transform="translate(95.410156 0)"/>
     <use xlink:href="#DejaVuSerif-32" transform="translate(159.033203 0)"/>
    </g>
   </g>
   <g id="text_79">
    <!-- 0.90 -->
    <g style="fill: #de8f05" transform="translate(809.478192 176.597297) scale(0.085 -0.085)">
     <use xlink:href="#DejaVuSerif-30"/>
     <use xlink:href="#DejaVuSerif-2e" transform="translate(63.623047 0)"/>
     <use xlink:href="#DejaVuSerif-39" transform="translate(95.410156 0)"/>
     <use xlink:href="#DejaVuSerif-30" transform="translate(159.033203 0)"/>
    </g>
   </g>
   <g id="text_80">
    <!-- 0.88 -->
    <g style="fill: #de8f05" transform="translate(863.407519 187.575141) scale(0.085 -0.085)">
     <use xlink:href="#DejaVuSerif-30"/>
     <use xlink:href="#DejaVuSerif-2e" transform="translate(63.623047 0)"/>
     <use xlink:href="#DejaVuSerif-38" transform="translate(95.410156 0)"/>
     <use xlink:href="#DejaVuSerif-38" transform="translate(159.033203 0)"/>
    </g>
   </g>
   <g id="text_81">
    <!-- 0.85 -->
    <g style="fill: #de8f05" transform="translate(917.336845 200.508927) scale(0.085 -0.085)">
     <use xlink:href="#DejaVuSerif-30"/>
     <use xlink:href="#DejaVuSerif-2e" transform="translate(63.623047 0)"/>
     <use xlink:href="#DejaVuSerif-38" transform="translate(95.410156 0)"/>
     <use xlink:href="#DejaVuSerif-35" transform="translate(159.033203 0)"/>
    </g>
   </g>
   <g id="text_82">
    <!-- 0.98 -->
    <g style="fill: #029e73" transform="translate(539.83156 134.155516) scale(0.085 -0.085)">
     <use xlink:href="#DejaVuSerif-30"/>
     <use xlink:href="#DejaVuSerif-2e" transform="translate(63.623047 0)"/>
     <use xlink:href="#DejaVuSerif-39" transform="translate(95.410156 0)"/>
     <use xlink:href="#DejaVuSerif-38" transform="translate(159.033203 0)"/>
    </g>
   </g>
   <g id="text_83">
    <!-- 0.98 -->
    <g style="fill: #029e73" transform="translate(593.760886 135.226477) scale(0.085 -0.085)">
     <use xlink:href="#DejaVuSerif-30"/>
     <use xlink:href="#DejaVuSerif-2e" transform="translate(63.623047 0)"/>
     <use xlink:href="#DejaVuSerif-39" transform="translate(95.410156 0)"/>
     <use xlink:href="#DejaVuSerif-38" transform="translate(159.033203 0)"/>
    </g>
   </g>
   <g id="text_84">
    <!-- 0.92 -->
    <g style="fill: #029e73" transform="translate(647.690213 164.028615) scale(0.085 -0.085)">
     <use xlink:href="#DejaVuSerif-30"/>
     <use xlink:href="#DejaVuSerif-2e" transform="translate(63.623047 0)"/>
     <use xlink:href="#DejaVuSerif-39" transform="translate(95.410156 0)"/>
     <use xlink:href="#DejaVuSerif-32" transform="translate(159.033203 0)"/>
    </g>
   </g>
   <g id="text_85">
    <!-- 0.86 -->
    <g style="fill: #029e73" transform="translate(701.619539 196.242703) scale(0.085 -0.085)">
     <use xlink:href="#DejaVuSerif-30"/>
     <use xlink:href="#DejaVuSerif-2e" transform="translate(63.623047 0)"/>
     <use xlink:href="#DejaVuSerif-38" transform="translate(95.410156 0)"/>
     <use xlink:href="#DejaVuSerif-36" transform="translate(159.033203 0)"/>
    </g>
   </g>
   <g id="text_86">
    <!-- 0.81 -->
    <g style="fill: #029e73" transform="translate(755.548866 221.079772) scale(0.085 -0.085)">
     <use xlink:href="#DejaVuSerif-30"/>
     <use xlink:href="#DejaVuSerif-2e" transform="translate(63.623047 0)"/>
     <use xlink:href="#DejaVuSerif-38" transform="translate(95.410156 0)"/>
     <use xlink:href="#DejaVuSerif-31" transform="translate(159.033203 0)"/>
    </g>
   </g>
   <g id="text_87">
    <!-- 0.78 -->
    <g style="fill: #029e73" transform="translate(809.478192 232.747412) scale(0.085 -0.085)">
     <use xlink:href="#DejaVuSerif-30"/>
     <use xlink:href="#DejaVuSerif-2e" transform="translate(63.623047 0)"/>
     <use xlink:href="#DejaVuSerif-37" transform="translate(95.410156 0)"/>
     <use xlink:href="#DejaVuSerif-38" transform="translate(159.033203 0)"/>
    </g>
   </g>
   <g id="text_88">
    <!-- 0.75 -->
    <g style="fill: #029e73" transform="translate(863.407519 250.985875) scale(0.085 -0.085)">
     <use xlink:href="#DejaVuSerif-30"/>
     <use xlink:href="#DejaVuSerif-2e" transform="translate(63.623047 0)"/>
     <use xlink:href="#DejaVuSerif-37" transform="translate(95.410156 0)"/>
     <use xlink:href="#DejaVuSerif-35" transform="translate(159.033203 0)"/>
    </g>
   </g>
   <g id="text_89">
    <!-- 0.71 -->
    <g style="fill: #029e73" transform="translate(917.336845 268.957445) scale(0.085 -0.085)">
     <use xlink:href="#DejaVuSerif-30"/>
     <use xlink:href="#DejaVuSerif-2e" transform="translate(63.623047 0)"/>
     <use xlink:href="#DejaVuSerif-37" transform="translate(95.410156 0)"/>
     <use xlink:href="#DejaVuSerif-31" transform="translate(159.033203 0)"/>
    </g>
   </g>
   <g id="text_90">
    <!-- 1.02 -->
    <g style="fill: #d55e00" transform="translate(539.83156 116.305641) scale(0.085 -0.085)">
     <use xlink:href="#DejaVuSerif-31"/>
     <use xlink:href="#DejaVuSerif-2e" transform="translate(63.623047 0)"/>
     <use xlink:href="#DejaVuSerif-30" transform="translate(95.410156 0)"/>
     <use xlink:href="#DejaVuSerif-32" transform="translate(159.033203 0)"/>
    </g>
   </g>
   <g id="text_91">
    <!-- 0.98 -->
    <g style="fill: #d55e00" transform="translate(593.760886 138.214458) scale(0.085 -0.085)">
     <use xlink:href="#DejaVuSerif-30"/>
     <use xlink:href="#DejaVuSerif-2e" transform="translate(63.623047 0)"/>
     <use xlink:href="#DejaVuSerif-39" transform="translate(95.410156 0)"/>
     <use xlink:href="#DejaVuSerif-38" transform="translate(159.033203 0)"/>
    </g>
   </g>
   <g id="text_92">
    <!-- 0.88 -->
    <g style="fill: #d55e00" transform="translate(647.690213 183.913536) scale(0.085 -0.085)">
     <use xlink:href="#DejaVuSerif-30"/>
     <use xlink:href="#DejaVuSerif-2e" transform="translate(63.623047 0)"/>
     <use xlink:href="#DejaVuSerif-38" transform="translate(95.410156 0)"/>
     <use xlink:href="#DejaVuSerif-38" transform="translate(159.033203 0)"/>
    </g>
   </g>
   <g id="text_93">
    <!-- 0.81 -->
    <g style="fill: #d55e00" transform="translate(701.619539 220.209032) scale(0.085 -0.085)">
     <use xlink:href="#DejaVuSerif-30"/>
     <use xlink:href="#DejaVuSerif-2e" transform="translate(63.623047 0)"/>
     <use xlink:href="#DejaVuSerif-38" transform="translate(95.410156 0)"/>
     <use xlink:href="#DejaVuSerif-31" transform="translate(159.033203 0)"/>
    </g>
   </g>
   <g id="text_94">
    <!-- 0.76 -->
    <g style="fill: #d55e00" transform="translate(755.548866 245.449013) scale(0.085 -0.085)">
     <use xlink:href="#DejaVuSerif-30"/>
     <use xlink:href="#DejaVuSerif-2e" transform="translate(63.623047 0)"/>
     <use xlink:href="#DejaVuSerif-37" transform="translate(95.410156 0)"/>
     <use xlink:href="#DejaVuSerif-36" transform="translate(159.033203 0)"/>
    </g>
   </g>
   <g id="text_95">
    <!-- 0.72 -->
    <g style="fill: #d55e00" transform="translate(809.478192 262.675942) scale(0.085 -0.085)">
     <use xlink:href="#DejaVuSerif-30"/>
     <use xlink:href="#DejaVuSerif-2e" transform="translate(63.623047 0)"/>
     <use xlink:href="#DejaVuSerif-37" transform="translate(95.410156 0)"/>
     <use xlink:href="#DejaVuSerif-32" transform="translate(159.033203 0)"/>
    </g>
   </g>
   <g id="text_96">
    <!-- 0.68 -->
    <g style="fill: #d55e00" transform="translate(863.407519 284.303405) scale(0.085 -0.085)">
     <use xlink:href="#DejaVuSerif-30"/>
     <use xlink:href="#DejaVuSerif-2e" transform="translate(63.623047 0)"/>
     <use xlink:href="#DejaVuSerif-36" transform="translate(95.410156 0)"/>
     <use xlink:href="#DejaVuSerif-38" transform="translate(159.033203 0)"/>
    </g>
   </g>
   <g id="text_97">
    <!-- 0.64 -->
    <g style="fill: #d55e00" transform="translate(917.336845 303.106078) scale(0.085 -0.085)">
     <use xlink:href="#DejaVuSerif-30"/>
     <use xlink:href="#DejaVuSerif-2e" transform="translate(63.623047 0)"/>
     <use xlink:href="#DejaVuSerif-36" transform="translate(95.410156 0)"/>
     <use xlink:href="#DejaVuSerif-34" transform="translate(159.033203 0)"/>
    </g>
   </g>
   <g id="text_98">
    <!-- b -->
    <g style="fill: #262626" transform="translate(733.502171 386.033381) scale(0.13 -0.13)">
     <defs>
      <path id="DejaVuSerif-BoldItalic-62" d="M 1031 4488 
L 556 4488 
L 628 4863 
L 2209 4863 
L 1828 2900 
Q 2019 3159 2281 3286 
Q 2544 3413 2894 3413 
Q 3603 3413 3919 2944 
Q 4131 2634 4131 2169 
Q 4131 1934 4078 1663 
Q 3919 847 3420 378 
Q 2922 -91 2213 -91 
Q 1863 -91 1650 36 
Q 1438 163 1347 422 
L 1266 0 
L 159 0 
L 1031 4488 
z
M 1556 1497 
Q 1494 1184 1494 966 
Q 1494 778 1541 656 
Q 1638 397 1969 397 
Q 2309 397 2501 672 
Q 2694 947 2834 1663 
Q 2922 2106 2922 2378 
Q 2922 2547 2888 2650 
Q 2803 2925 2463 2925 
Q 2131 2925 1931 2665 
Q 1731 2406 1619 1825 
L 1556 1497 
z
" transform="scale(0.015625)"/>
     </defs>
     <use xlink:href="#DejaVuSerif-BoldItalic-62"/>
    </g>
   </g>
   <g id="text_99">
    <!-- Memory ratio -->
    <g style="fill: #262626" transform="translate(689.573187 17.837812) scale(0.14 -0.14)">
     <defs>
      <path id="DejaVuSerif-4d" d="M 353 0 
L 353 331 
L 947 331 
L 947 4331 
L 319 4331 
L 319 4666 
L 1678 4666 
L 3316 1344 
L 4953 4666 
L 6228 4666 
L 6228 4331 
L 5606 4331 
L 5606 331 
L 6203 331 
L 6203 0 
L 4378 0 
L 4378 331 
L 4972 331 
L 4972 3938 
L 3372 684 
L 2931 684 
L 1331 3938 
L 1331 331 
L 1925 331 
L 1925 0 
L 353 0 
z
" transform="scale(0.015625)"/>
      <path id="DejaVuSerif-79" d="M 1381 -609 
L 1600 -56 
L 359 2988 
L -19 2988 
L -19 3322 
L 1509 3322 
L 1509 2988 
L 978 2988 
L 1913 703 
L 2847 2988 
L 2350 2988 
L 2350 3322 
L 3597 3322 
L 3597 2988 
L 3225 2988 
L 1703 -750 
Q 1547 -1138 1356 -1280 
Q 1166 -1422 819 -1422 
Q 672 -1422 517 -1397 
Q 363 -1372 206 -1325 
L 206 -691 
L 500 -691 
Q 519 -903 608 -995 
Q 697 -1088 884 -1088 
Q 1056 -1088 1161 -992 
Q 1266 -897 1381 -609 
z
" transform="scale(0.015625)"/>
     </defs>
     <use xlink:href="#DejaVuSerif-4d"/>
     <use xlink:href="#DejaVuSerif-65" transform="translate(102.392578 0)"/>
     <use xlink:href="#DejaVuSerif-6d" transform="translate(161.572266 0)"/>
     <use xlink:href="#DejaVuSerif-6f" transform="translate(256.396484 0)"/>
     <use xlink:href="#DejaVuSerif-72" transform="translate(316.601562 0)"/>
     <use xlink:href="#DejaVuSerif-79" transform="translate(364.404297 0)"/>
     <use xlink:href="#DejaVuSerif-20" transform="translate(420.898438 0)"/>
     <use xlink:href="#DejaVuSerif-72" transform="translate(452.685547 0)"/>
     <use xlink:href="#DejaVuSerif-61" transform="translate(500.488281 0)"/>
     <use xlink:href="#DejaVuSerif-74" transform="translate(560.107422 0)"/>
     <use xlink:href="#DejaVuSerif-69" transform="translate(600.292969 0)"/>
     <use xlink:href="#DejaVuSerif-6f" transform="translate(632.275391 0)"/>
    </g>
    <!-- mean ratio = 0.932 -->
    <g style="fill: #262626" transform="translate(669.218499 33.713812) scale(0.14 -0.14)">
     <use xlink:href="#DejaVuSerif-6d"/>
     <use xlink:href="#DejaVuSerif-65" transform="translate(94.824219 0)"/>
     <use xlink:href="#DejaVuSerif-61" transform="translate(154.003906 0)"/>
     <use xlink:href="#DejaVuSerif-6e" transform="translate(213.623047 0)"/>
     <use xlink:href="#DejaVuSerif-20" transform="translate(278.027344 0)"/>
     <use xlink:href="#DejaVuSerif-72" transform="translate(309.814453 0)"/>
     <use xlink:href="#DejaVuSerif-61" transform="translate(357.617188 0)"/>
     <use xlink:href="#DejaVuSerif-74" transform="translate(417.236328 0)"/>
     <use xlink:href="#DejaVuSerif-69" transform="translate(457.421875 0)"/>
     <use xlink:href="#DejaVuSerif-6f" transform="translate(489.404297 0)"/>
     <use xlink:href="#DejaVuSerif-20" transform="translate(549.609375 0)"/>
     <use xlink:href="#DejaVuSerif-3d" transform="translate(581.396484 0)"/>
     <use xlink:href="#DejaVuSerif-20" transform="translate(665.185547 0)"/>
     <use xlink:href="#DejaVuSerif-30" transform="translate(696.972656 0)"/>
     <use xlink:href="#DejaVuSerif-2e" transform="translate(760.595703 0)"/>
     <use xlink:href="#DejaVuSerif-39" transform="translate(792.382812 0)"/>
     <use xlink:href="#DejaVuSerif-33" transform="translate(856.005859 0)"/>
     <use xlink:href="#DejaVuSerif-32" transform="translate(919.628906 0)"/>
    </g>
   </g>
  </g>
  <g id="axes_3">
   <g id="legend_1">
    <g id="patch_12">
     <path d="M 114.63375 461.923187 
L 883.91625 461.923187 
Q 886.31625 461.923187 886.31625 459.523187 
L 886.31625 404.513812 
Q 886.31625 402.113812 883.91625 402.113812 
L 114.63375 402.113812 
Q 112.23375 402.113812 112.23375 404.513812 
L 112.23375 459.523187 
Q 112.23375 461.923187 114.63375 461.923187 
z
" style="fill: #ffffff; opacity: 0.9; stroke: #cccccc; stroke-linejoin: miter"/>
    </g>
    <g id="text_100">
     <!-- Num microbatches -->
     <g style="fill: #262626" transform="translate(431.790625 424.751625) scale(0.14 -0.14)">
      <defs>
       <path id="DejaVuSerif-4e" d="M 313 0 
L 313 331 
L 941 331 
L 941 4331 
L 313 4331 
L 313 4666 
L 1509 4666 
L 4306 984 
L 4306 4331 
L 3681 4331 
L 3681 4666 
L 5319 4666 
L 5319 4331 
L 4691 4331 
L 4691 -91 
L 4313 -91 
L 1325 3841 
L 1325 331 
L 1953 331 
L 1953 0 
L 313 0 
z
" transform="scale(0.015625)"/>
       <path id="DejaVuSerif-62" d="M 738 331 
L 738 4531 
L 184 4531 
L 184 4863 
L 1313 4863 
L 1313 2803 
Q 1481 3116 1742 3264 
Q 2003 3413 2388 3413 
Q 3000 3413 3387 2928 
Q 3775 2444 3775 1663 
Q 3775 881 3387 395 
Q 3000 -91 2388 -91 
Q 2003 -91 1742 57 
Q 1481 206 1313 519 
L 1313 0 
L 184 0 
L 184 331 
L 738 331 
z
M 1313 1497 
Q 1313 897 1542 583 
Q 1772 269 2209 269 
Q 2650 269 2876 622 
Q 3103 975 3103 1663 
Q 3103 2353 2876 2703 
Q 2650 3053 2209 3053 
Q 1772 3053 1542 2737 
Q 1313 2422 1313 1825 
L 1313 1497 
z
" transform="scale(0.015625)"/>
      </defs>
      <use xlink:href="#DejaVuSerif-4e"/>
      <use xlink:href="#DejaVuSerif-75" transform="translate(87.5 0)"/>
      <use xlink:href="#DejaVuSerif-6d" transform="translate(151.904297 0)"/>
      <use xlink:href="#DejaVuSerif-20" transform="translate(246.728516 0)"/>
      <use xlink:href="#DejaVuSerif-6d" transform="translate(278.515625 0)"/>
      <use xlink:href="#DejaVuSerif-69" transform="translate(373.339844 0)"/>
      <use xlink:href="#DejaVuSerif-63" transform="translate(405.322266 0)"/>
      <use xlink:href="#DejaVuSerif-72" transform="translate(461.328125 0)"/>
      <use xlink:href="#DejaVuSerif-6f" transform="translate(509.130859 0)"/>
      <use xlink:href="#DejaVuSerif-62" transform="translate(569.335938 0)"/>
      <use xlink:href="#DejaVuSerif-61" transform="translate(633.349609 0)"/>
      <use xlink:href="#DejaVuSerif-74" transform="translate(692.96875 0)"/>
      <use xlink:href="#DejaVuSerif-63" transform="translate(733.154297 0)"/>
      <use xlink:href="#DejaVuSerif-68" transform="translate(789.160156 0)"/>
      <use xlink:href="#DejaVuSerif-65" transform="translate(853.564453 0)"/>
      <use xlink:href="#DejaVuSerif-73" transform="translate(912.744141 0)"/>
     </g>
    </g>
    <g id="line2d_38">
     <path d="M 124.23375 441.523187 
L 136.23375 441.523187 
L 148.23375 441.523187 
" style="fill: none; stroke: #0173b2; stroke-width: 1.8; stroke-linecap: round"/>
     <defs>
      <path id="me1ae894729" d="M 0 3.5 
C 0.928211 3.5 1.81853 3.131218 2.474874 2.474874 
C 3.131218 1.81853 3.5 0.928211 3.5 0 
C 3.5 -0.928211 3.131218 -1.81853 2.474874 -2.474874 
C 1.81853 -3.131218 0.928211 -3.5 0 -3.5 
C -0.928211 -3.5 -1.81853 -3.131218 -2.474874 -2.474874 
C -3.131218 -1.81853 -3.5 -0.928211 -3.5 0 
C -3.5 0.928211 -3.131218 1.81853 -2.474874 2.474874 
C -1.81853 3.131218 -0.928211 3.5 0 3.5 
z
"/>
     </defs>
     <g>
      <use xlink:href="#me1ae894729" x="136.23375" y="441.523187" style="fill: #0173b2"/>
     </g>
    </g>
    <g id="text_101">
     <!-- num_microbatches = 1 -->
     <g style="fill: #262626" transform="translate(157.83375 446.983187) scale(0.12 -0.12)">
      <defs>
       <path id="DejaVuSerif-5f" d="M 3200 -1259 
L 3200 -1509 
L 0 -1509 
L 0 -1259 
L 3200 -1259 
z
" transform="scale(0.015625)"/>
      </defs>
      <use xlink:href="#DejaVuSerif-6e"/>
      <use xlink:href="#DejaVuSerif-75" transform="translate(64.404297 0)"/>
      <use xlink:href="#DejaVuSerif-6d" transform="translate(128.808594 0)"/>
      <use xlink:href="#DejaVuSerif-5f" transform="translate(223.632812 0)"/>
      <use xlink:href="#DejaVuSerif-6d" transform="translate(273.632812 0)"/>
      <use xlink:href="#DejaVuSerif-69" transform="translate(368.457031 0)"/>
      <use xlink:href="#DejaVuSerif-63" transform="translate(400.439453 0)"/>
      <use xlink:href="#DejaVuSerif-72" transform="translate(456.445312 0)"/>
      <use xlink:href="#DejaVuSerif-6f" transform="translate(504.248047 0)"/>
      <use xlink:href="#DejaVuSerif-62" transform="translate(564.453125 0)"/>
      <use xlink:href="#DejaVuSerif-61" transform="translate(628.466797 0)"/>
      <use xlink:href="#DejaVuSerif-74" transform="translate(688.085938 0)"/>
      <use xlink:href="#DejaVuSerif-63" transform="translate(728.271484 0)"/>
      <use xlink:href="#DejaVuSerif-68" transform="translate(784.277344 0)"/>
      <use xlink:href="#DejaVuSerif-65" transform="translate(848.681641 0)"/>
      <use xlink:href="#DejaVuSerif-73" transform="translate(907.861328 0)"/>
      <use xlink:href="#DejaVuSerif-20" transform="translate(959.179688 0)"/>
      <use xlink:href="#DejaVuSerif-3d" transform="translate(990.966797 0)"/>
      <use xlink:href="#DejaVuSerif-20" transform="translate(1074.755859 0)"/>
      <use xlink:href="#DejaVuSerif-31" transform="translate(1106.542969 0)"/>
     </g>
    </g>
    <g id="line2d_39">
     <path d="M 316.254375 441.523187 
L 328.254375 441.523187 
L 340.254375 441.523187 
" style="fill: none; stroke: #de8f05; stroke-width: 1.8; stroke-linecap: round"/>
     <defs>
      <path id="mbfe0c64831" d="M -3.5 3.5 
L 3.5 3.5 
L 3.5 -3.5 
L -3.5 -3.5 
z
"/>
     </defs>
     <g>
      <use xlink:href="#mbfe0c64831" x="328.254375" y="441.523187" style="fill: #de8f05"/>
     </g>
    </g>
    <g id="text_102">
     <!-- num_microbatches = 2 -->
     <g style="fill: #262626" transform="translate(349.854375 446.983187) scale(0.12 -0.12)">
      <use xlink:href="#DejaVuSerif-6e"/>
      <use xlink:href="#DejaVuSerif-75" transform="translate(64.404297 0)"/>
      <use xlink:href="#DejaVuSerif-6d" transform="translate(128.808594 0)"/>
      <use xlink:href="#DejaVuSerif-5f" transform="translate(223.632812 0)"/>
      <use xlink:href="#DejaVuSerif-6d" transform="translate(273.632812 0)"/>
      <use xlink:href="#DejaVuSerif-69" transform="translate(368.457031 0)"/>
      <use xlink:href="#DejaVuSerif-63" transform="translate(400.439453 0)"/>
      <use xlink:href="#DejaVuSerif-72" transform="translate(456.445312 0)"/>
      <use xlink:href="#DejaVuSerif-6f" transform="translate(504.248047 0)"/>
      <use xlink:href="#DejaVuSerif-62" transform="translate(564.453125 0)"/>
      <use xlink:href="#DejaVuSerif-61" transform="translate(628.466797 0)"/>
      <use xlink:href="#DejaVuSerif-74" transform="translate(688.085938 0)"/>
      <use xlink:href="#DejaVuSerif-63" transform="translate(728.271484 0)"/>
      <use xlink:href="#DejaVuSerif-68" transform="translate(784.277344 0)"/>
      <use xlink:href="#DejaVuSerif-65" transform="translate(848.681641 0)"/>
      <use xlink:href="#DejaVuSerif-73" transform="translate(907.861328 0)"/>
      <use xlink:href="#DejaVuSerif-20" transform="translate(959.179688 0)"/>
      <use xlink:href="#DejaVuSerif-3d" transform="translate(990.966797 0)"/>
      <use xlink:href="#DejaVuSerif-20" transform="translate(1074.755859 0)"/>
      <use xlink:href="#DejaVuSerif-32" transform="translate(1106.542969 0)"/>
     </g>
    </g>
    <g id="line2d_40">
     <path d="M 508.275 441.523187 
L 520.275 441.523187 
L 532.275 441.523187 
" style="fill: none; stroke: #029e73; stroke-width: 1.8; stroke-linecap: round"/>
     <defs>
      <path id="m2a4e6a7d66" d="M 0 -3.5 
L -3.5 3.5 
L 3.5 3.5 
z
"/>
     </defs>
     <g>
      <use xlink:href="#m2a4e6a7d66" x="520.275" y="441.523187" style="fill: #029e73"/>
     </g>
    </g>
    <g id="text_103">
     <!-- num_microbatches = 4 -->
     <g style="fill: #262626" transform="translate(541.875 446.983187) scale(0.12 -0.12)">
      <use xlink:href="#DejaVuSerif-6e"/>
      <use xlink:href="#DejaVuSerif-75" transform="translate(64.404297 0)"/>
      <use xlink:href="#DejaVuSerif-6d" transform="translate(128.808594 0)"/>
      <use xlink:href="#DejaVuSerif-5f" transform="translate(223.632812 0)"/>
      <use xlink:href="#DejaVuSerif-6d" transform="translate(273.632812 0)"/>
      <use xlink:href="#DejaVuSerif-69" transform="translate(368.457031 0)"/>
      <use xlink:href="#DejaVuSerif-63" transform="translate(400.439453 0)"/>
      <use xlink:href="#DejaVuSerif-72" transform="translate(456.445312 0)"/>
      <use xlink:href="#DejaVuSerif-6f" transform="translate(504.248047 0)"/>
      <use xlink:href="#DejaVuSerif-62" transform="translate(564.453125 0)"/>
      <use xlink:href="#DejaVuSerif-61" transform="translate(628.466797 0)"/>
      <use xlink:href="#DejaVuSerif-74" transform="translate(688.085938 0)"/>
      <use xlink:href="#DejaVuSerif-63" transform="translate(728.271484 0)"/>
      <use xlink:href="#DejaVuSerif-68" transform="translate(784.277344 0)"/>
      <use xlink:href="#DejaVuSerif-65" transform="translate(848.681641 0)"/>
      <use xlink:href="#DejaVuSerif-73" transform="translate(907.861328 0)"/>
      <use xlink:href="#DejaVuSerif-20" transform="translate(959.179688 0)"/>
      <use xlink:href="#DejaVuSerif-3d" transform="translate(990.966797 0)"/>
      <use xlink:href="#DejaVuSerif-20" transform="translate(1074.755859 0)"/>
      <use xlink:href="#DejaVuSerif-34" transform="translate(1106.542969 0)"/>
     </g>
    </g>
    <g id="line2d_41">
     <path d="M 700.295625 441.523187 
L 712.295625 441.523187 
L 724.295625 441.523187 
" style="fill: none; stroke: #d55e00; stroke-width: 1.8; stroke-linecap: round"/>
     <defs>
      <path id="mfe6b271ec8" d="M -0 4.949747 
L 4.949747 0 
L 0 -4.949747 
L -4.949747 -0 
z
"/>
     </defs>
     <g>
      <use xlink:href="#mfe6b271ec8" x="712.295625" y="441.523187" style="fill: #d55e00"/>
     </g>
    </g>
    <g id="text_104">
     <!-- num_microbatches = 8 -->
     <g style="fill: #262626" transform="translate(733.895625 446.983187) scale(0.12 -0.12)">
      <use xlink:href="#DejaVuSerif-6e"/>
      <use xlink:href="#DejaVuSerif-75" transform="translate(64.404297 0)"/>
      <use xlink:href="#DejaVuSerif-6d" transform="translate(128.808594 0)"/>
      <use xlink:href="#DejaVuSerif-5f" transform="translate(223.632812 0)"/>
      <use xlink:href="#DejaVuSerif-6d" transform="translate(273.632812 0)"/>
      <use xlink:href="#DejaVuSerif-69" transform="translate(368.457031 0)"/>
      <use xlink:href="#DejaVuSerif-63" transform="translate(400.439453 0)"/>
      <use xlink:href="#DejaVuSerif-72" transform="translate(456.445312 0)"/>
      <use xlink:href="#DejaVuSerif-6f" transform="translate(504.248047 0)"/>
      <use xlink:href="#DejaVuSerif-62" transform="translate(564.453125 0)"/>
      <use xlink:href="#DejaVuSerif-61" transform="translate(628.466797 0)"/>
      <use xlink:href="#DejaVuSerif-74" transform="translate(688.085938 0)"/>
      <use xlink:href="#DejaVuSerif-63" transform="translate(728.271484 0)"/>
      <use xlink:href="#DejaVuSerif-68" transform="translate(784.277344 0)"/>
      <use xlink:href="#DejaVuSerif-65" transform="translate(848.681641 0)"/>
      <use xlink:href="#DejaVuSerif-73" transform="translate(907.861328 0)"/>
      <use xlink:href="#DejaVuSerif-20" transform="translate(959.179688 0)"/>
      <use xlink:href="#DejaVuSerif-3d" transform="translate(990.966797 0)"/>
      <use xlink:href="#DejaVuSerif-20" transform="translate(1074.755859 0)"/>
      <use xlink:href="#DejaVuSerif-38" transform="translate(1106.542969 0)"/>
     </g>
    </g>
   </g>
  </g>
 </g>
 <defs>
  <clipPath id="p170d2b009d">
   <rect x="52.875" y="39.713812" width="415.255814" height="285.12"/>
  </clipPath>
  <clipPath id="p2de827d7d9">
   <rect x="530.419186" y="39.713812" width="415.255814" height="285.12"/>
  </clipPath>
 </defs>
</svg>
